  0
SECTION
  2
HEADER
  9
$ACADVER
  1
AC1014
  9
$ACADMAINTVER
 70
     9
  9
$DWGCODEPAGE
  3
ANSI_1252
  9
$INSBASE
 10
0.0
 20
0.0
 30
0.0
  9
$EXTMIN
 10
1.000000000000000E+20
 20
1.000000000000000E+20
 30
1.000000000000000E+20
  9
$EXTMAX
 10
-1.000000000000000E+20
 20
-1.000000000000000E+20
 30
-1.000000000000000E+20
  9
$LIMMIN
 10
0.0
 20
0.0
  9
$LIMMAX
 10
12.0
 20
9.0
  9
$ORTHOMODE
 70
     0
  9
$REGENMODE
 70
     1
  9
$FILLMODE
 70
     1
  9
$QTEXTMODE
 70
     0
  9
$MIRRTEXT
 70
     1
  9
$DRAGMODE
 70
     2
  9
$LTSCALE
 40
12.7
  9
$OSMODE
 70
    23
  9
$ATTMODE
 70
     1
  9
$TEXTSIZE
 40
3.5
  9
$TRACEWID
 40
0.05
  9
$TEXTSTYLE
  7
ONSHAPE-STANDARD
  9
$CLAYER
  8
0
  9
$CELTYPE
  6
BYLAYER
  9
$CECOLOR
 62
   256
  9
$CELTSCALE
 40
1.0
  9
$DELOBJ
 70
     1
  9
$DISPSILH
 70
     0
  9
$DIMSCALE
 40
1.0
  9
$DIMASZ
 40
2.5
  9
$DIMEXO
 40
0.625
  9
$DIMDLI
 40
3.75
  9
$DIMRND
 40
0.0
  9
$DIMDLE
 40
0.0
  9
$DIMEXE
 40
1.25
  9
$DIMTP
 40
0.0
  9
$DIMTM
 40
0.0
  9
$DIMTXT
 40
3.5
  9
$DIMCEN
 40
2.5
  9
$DIMTSZ
 40
0.0
  9
$DIMTOL
 70
     0
  9
$DIMLIM
 70
     0
  9
$DIMTIH
 70
     0
  9
$DIMTOH
 70
     0
  9
$DIMSE1
 70
     0
  9
$DIMSE2
 70
     0
  9
$DIMTAD
 70
     1
  9
$DIMZIN
 70
     8
  9
$DIMBLK
  1

  9
$DIMASO
 70
     1
  9
$DIMSHO
 70
     1
  9
$DIMPOST
  1

  9
$DIMAPOST
  1

  9
$DIMALT
 70
     0
  9
$DIMALTD
 70
     3
  9
$DIMALTF
 40
0.03937
  9
$DIMLFAC
 40
1.0
  9
$DIMTOFL
 70
     1
  9
$DIMTVP
 40
0.0
  9
$DIMTIX
 70
     0
  9
$DIMSOXD
 70
     0
  9
$DIMSAH
 70
     0
  9
$DIMBLK1
  1

  9
$DIMBLK2
  1

  9
$DIMSTYLE
  2
ONSHAPE-ISO-25
  9
$DIMCLRD
 70
     0
  9
$DIMCLRE
 70
     0
  9
$DIMCLRT
 70
     0
  9
$DIMTFAC
 40
1.0
  9
$DIMGAP
 40
0.625
  9
$DIMJUST
 70
     0
  9
$DIMSD1
 70
     0
  9
$DIMSD2
 70
     0
  9
$DIMTOLJ
 70
     0
  9
$DIMTZIN
 70
     8
  9
$DIMALTZ
 70
     0
  9
$DIMALTTZ
 70
     0
  9
$DIMFIT
 70
     3
  9
$DIMUPT
 70
     1
  9
$DIMUNIT
 70
     2
  9
$DIMDEC
 70
     2
  9
$DIMTDEC
 70
     2
  9
$DIMALTU
 70
     2
  9
$DIMALTTD
 70
     3
  9
$DIMTXSTY
  7
ONSHAPE-STANDARD-DIMENSION
  9
$DIMAUNIT
 70
     0
  9
$LUNITS
 70
     2
  9
$LUPREC
 70
     4
  9
$SKETCHINC
 40
0.1
  9
$FILLETRAD
 40
0.5
  9
$AUNITS
 70
     0
  9
$AUPREC
 70
     0
  9
$MENU
  1
.
  9
$ELEVATION
 40
0.0
  9
$PELEVATION
 40
0.0
  9
$THICKNESS
 40
0.0
  9
$LIMCHECK
 70
     0
  9
$CHAMFERA
 40
0.0
  9
$CHAMFERB
 40
0.0
  9
$CHAMFERC
 40
0.0
  9
$CHAMFERD
 40
0.0
  9
$SKPOLY
 70
     0
  9
$TDCREATE
 40
2457676.750868044
  9
$TDUPDATE
 40
2457676.750868044
  9
$TDINDWG
 40
0.0
  9
$TDUSRTIMER
 40
0.0
  9
$USRTIMER
 70
     1
  9
$ANGBASE
 50
0.0
  9
$ANGDIR
 70
     0
  9
$PDMODE
 70
     0
  9
$PDSIZE
 40
0.0
  9
$PLINEWID
 40
0.0
  9
$COORDS
 70
     1
  9
$SPLFRAME
 70
     0
  9
$SPLINETYPE
 70
     6
  9
$SPLINESEGS
 70
     8
  9
$ATTDIA
 70
     0
  9
$ATTREQ
 70
     1
  9
$HANDLING
 70
     1
  9
$HANDSEED
  5
1A0
  9
$SURFTAB1
 70
     6
  9
$SURFTAB2
 70
     6
  9
$SURFTYPE
 70
     6
  9
$SURFU
 70
     6
  9
$SURFV
 70
     6
  9
$UCSNAME
  2

  9
$UCSORG
 10
0.0
 20
0.0
 30
0.0
  9
$UCSXDIR
 10
1.0
 20
0.0
 30
0.0
  9
$UCSYDIR
 10
0.0
 20
1.0
 30
0.0
  9
$PUCSNAME
  2

  9
$PUCSORG
 10
0.0
 20
0.0
 30
0.0
  9
$PUCSXDIR
 10
1.0
 20
0.0
 30
0.0
  9
$PUCSYDIR
 10
0.0
 20
1.0
 30
0.0
  9
$USERI1
 70
     0
  9
$USERI2
 70
     0
  9
$USERI3
 70
     0
  9
$USERI4
 70
     0
  9
$USERI5
 70
     0
  9
$USERR1
 40
0.0
  9
$USERR2
 40
0.0
  9
$USERR3
 40
0.0
  9
$USERR4
 40
0.0
  9
$USERR5
 40
0.0
  9
$WORLDVIEW
 70
     1
  9
$SHADEDGE
 70
     3
  9
$SHADEDIF
 70
    70
  9
$TILEMODE
 70
     1
  9
$MAXACTVP
 70
    64
  9
$PINSBASE
 10
0.0
 20
0.0
 30
0.0
  9
$PLIMCHECK
 70
     0
  9
$PEXTMIN
 10
1.000000000000000E+20
 20
1.000000000000000E+20
 30
1.000000000000000E+20
  9
$PEXTMAX
 10
-1.000000000000000E+20
 20
-1.000000000000000E+20
 30
-1.000000000000000E+20
  9
$PLIMMIN
 10
0.0
 20
0.0
  9
$PLIMMAX
 10
12.0
 20
9.0
  9
$UNITMODE
 70
     0
  9
$VISRETAIN
 70
     1
  9
$PLINEGEN
 70
     0
  9
$PSLTSCALE
 70
     1
  9
$TREEDEPTH
 70
  3020
  9
$PICKSTYLE
 70
     1
  9
$CMLSTYLE
  2
STANDARD
  9
$CMLJUST
 70
     0
  9
$CMLSCALE
 40
1.0
  9
$PROXYGRAPHICS
 70
     1
  9
$MEASUREMENT
 70
     0
  0
ENDSEC
  0
SECTION
  2
CLASSES
  0
CLASS
  1
ACDBDICTIONARYWDFLT
  2
AcDbDictionaryWithDefault
  3
ObjectDBX Classes
 90
        0
280
     0
281
     0
  0
CLASS
  1
VISUALSTYLE
  2
AcDbVisualStyle
  3
ObjectDBX Classes
 90
     4095
280
     0
281
     0
  0
CLASS
  1
MATERIAL
  2
AcDbMaterial
  3
ObjectDBX Classes
 90
     1153
280
     0
281
     0
  0
CLASS
  1
SCALE
  2
AcDbScale
  3
ObjectDBX Classes
 90
     1153
280
     0
281
     0
  0
CLASS
  1
SUN
  2
AcDbSun
  3
SCENEOE
 90
     1153
280
     0
281
     0
  0
CLASS
  1
TABLESTYLE
  2
AcDbTableStyle
  3
ObjectDBX Classes
 90
     4095
280
     0
281
     0
  0
CLASS
  1
DICTIONARYVAR
  2
AcDbDictionaryVar
  3
ObjectDBX Classes
 90
        0
280
     0
281
     0
  0
CLASS
  1
XRECORD
  2
AcDbXrecord
  3
ObjectDBX Classes
 90
        0
280
     0
281
     0
  0
CLASS
  1
LWPOLYLINE
  2
AcDbPolyline
  3
ObjectDBX Classes
 90
        0
280
     0
281
     1
  0
CLASS
  1
HATCH
  2
AcDbHatch
  3
ObjectDBX Classes
 90
        0
280
     0
281
     1
  0
CLASS
  1
ACDBPLACEHOLDER
  2
AcDbPlaceHolder
  3
ObjectDBX Classes
 90
        0
280
     0
281
     0
  0
CLASS
  1
LAYOUT
  2
AcDbLayout
  3
ObjectDBX Classes
 90
        0
280
     0
281
     0
  0
ENDSEC
  0
SECTION
  2
TABLES
  0
TABLE
  2
VPORT
  5
8
330
0
100
AcDbSymbolTable
 70
     1
  0
VPORT
  5
29
330
8
100
AcDbSymbolTableRecord
100
AcDbViewportTableRecord
  2
*ACTIVE
 70
     0
 10
0.0
 20
0.0
 11
1.0
 21
1.0
 12
114.75
 22
215.6985915492958
 13
0.0
 23
0.0
 14
0.5
 24
0.5
 15
0.5
 25
0.5
 16
0.0
 26
0.0
 36
1.0
 17
0.0
 27
0.0
 37
0.0
 40
300.9
 41
0.6779661016949153
 42
50.0
 43
0.0
 44
0.0
 50
0.0
 51
0.0
 71
     0
 72
   100
 73
     1
 74
     3
 75
     0
 76
     0
 77
     0
 78
     0
  0
ENDTAB
  0
TABLE
  2
LTYPE
  5
5
330
0
100
AcDbSymbolTable
 70
     1
  0
LTYPE
  5
14
330
5
100
AcDbSymbolTableRecord
100
AcDbLinetypeTableRecord
  2
BYBLOCK
 70
     0
  3

 72
    65
 73
     0
 40
0.0
  0
LTYPE
  5
15
330
5
100
AcDbSymbolTableRecord
100
AcDbLinetypeTableRecord
  2
BYLAYER
 70
     0
  3

 72
    65
 73
     0
 40
0.0
  0
LTYPE
  5
16
330
5
100
AcDbSymbolTableRecord
100
AcDbLinetypeTableRecord
  2
CONTINUOUS
 70
     0
  3
Solid line
 72
    65
 73
     0
 40
0.0
  0
ENDTAB
  0
TABLE
  2
LAYER
  5
2
330
0
100
AcDbSymbolTable
 70
     2
  0
LAYER
  5
10
330
2
100
AcDbSymbolTableRecord
100
AcDbLayerTableRecord
  2
0
 70
     0
 62
     7
  6
CONTINUOUS
  0
LAYER
  5
71
330
2
100
AcDbSymbolTableRecord
100
AcDbLayerTableRecord
  2
VISIBLE
 70
     0
 62
     7
  6
CONTINUOUS
  0
ENDTAB
  0
TABLE
  2
STYLE
  5
3
330
0
100
AcDbSymbolTable
 70
     3
  0
STYLE
  5
11
330
3
100
AcDbSymbolTableRecord
100
AcDbTextStyleTableRecord
  2
STANDARD
 70
     0
 40
0.0
 41
1.0
 50
0.0
 71
     0
 42
3.5
  3
txt
  4

  0
STYLE
  5
6E
330
3
100
AcDbSymbolTableRecord
100
AcDbTextStyleTableRecord
  2
ONSHAPE-STANDARD
 70
     0
 40
0.0
 41
1.0
 50
0.0
 71
     0
 42
3.5
  3
ISOCP.SHX
  4

  0
STYLE
  5
70
330
3
100
AcDbSymbolTableRecord
100
AcDbTextStyleTableRecord
  2
ONSHAPE-STANDARD-DIMENSION
 70
     0
 40
0.0
 41
1.0
 50
0.0
 71
     0
 42
3.5
  3
ISOCP.SHX
  4

  0
ENDTAB
  0
TABLE
  2
VIEW
  5
6
330
0
100
AcDbSymbolTable
 70
     0
  0
ENDTAB
  0
TABLE
  2
UCS
  5
7
330
0
100
AcDbSymbolTable
 70
     0
  0
ENDTAB
  0
TABLE
  2
APPID
  5
9
330
0
100
AcDbSymbolTable
 70
     1
  0
APPID
  5
12
330
9
100
AcDbSymbolTableRecord
100
AcDbRegAppTableRecord
  2
ACAD
 70
     0
  0
ENDTAB
  0
TABLE
  2
DIMSTYLE
  5
A
330
0
100
AcDbSymbolTable
 70
     2
  0
DIMSTYLE
105
27
330
A
100
AcDbSymbolTableRecord
100
AcDbDimStyleTableRecord
  2
STANDARD
 70
     0
  3

  4

  5

  6

  7

 40
1.0
 41
0.18
 42
0.0625
 43
0.38
 44
0.18
 45
0.0
 46
0.0
 47
0.0
 48
0.0
140
0.18
141
0.09
142
0.0
143
25.4
144
1.0
145
0.0
146
1.0
147
0.09
 71
     0
 72
     0
 73
     1
 74
     1
 75
     0
 76
     0
 77
     0
 78
     0
170
     0
171
     2
172
     0
173
     0
174
     0
175
     0
176
     0
177
     0
178
     0
270
     2
271
     4
272
     4
273
     2
274
     2
340
11
275
     0
280
     0
281
     0
282
     0
283
     1
284
     0
285
     0
286
     0
287
     3
288
     0
  0
DIMSTYLE
105
6F
330
A
100
AcDbSymbolTableRecord
100
AcDbDimStyleTableRecord
  2
ONSHAPE-ISO-25
 70
     0
  3

  4

  5

  6

  7

 40
1.0
 41
2.5
 42
0.625
 43
3.75
 44
1.25
 45
0.0
 46
0.0
 47
0.0
 48
0.0
140
3.5
141
2.5
142
0.0
143
0.03937
144
1.0
145
0.0
146
1.0
147
0.625
 71
     0
 72
     0
 73
     0
 74
     0
 75
     0
 76
     0
 77
     1
 78
     8
170
     0
171
     3
172
     1
173
     0
174
     0
175
     0
176
     0
177
     0
178
     0
179
     1
270
     2
271
     2
272
     2
273
     2
274
     3
340
70
275
     0
280
     0
281
     0
282
     0
283
     0
284
     8
285
     0
286
     0
287
     3
288
     1
  0
ENDTAB
  0
TABLE
  2
BLOCK_RECORD
  5
1
330
0
100
AcDbSymbolTable
 70
     1
  0
BLOCK_RECORD
  5
1F
330
1
100
AcDbSymbolTableRecord
100
AcDbBlockTableRecord
  2
*MODEL_SPACE
  0
BLOCK_RECORD
  5
1B
330
1
100
AcDbSymbolTableRecord
100
AcDbBlockTableRecord
  2
*PAPER_SPACE
  0
ENDTAB
  0
ENDSEC
  0
SECTION
  2
BLOCKS
  0
BLOCK
  5
20
330
1F
100
AcDbEntity
  8
0
100
AcDbBlockBegin
  2
*MODEL_SPACE
 70
     0
 10
0.0
 20
0.0
 30
0.0
  3
*MODEL_SPACE
  1

  0
ENDBLK
  5
21
330
1F
100
AcDbEntity
  8
0
100
AcDbBlockEnd
  0
BLOCK
  5
1C
330
1B
100
AcDbEntity
 67
     1
  8
0
100
AcDbBlockBegin
  2
*PAPER_SPACE
 70
     0
 10
0.0
 20
0.0
 30
0.0
  3
*PAPER_SPACE
  1

  0
ENDBLK
  5
1D
330
1B
100
AcDbEntity
 67
     1
  8
0
100
AcDbBlockEnd
  0
ENDSEC
  0
SECTION
  2
ENTITIES
  0
LINE
  5
73
330
1F
100
AcDbEntity
  8
VISIBLE
100
AcDbLine
 10
124.447442188859
 20
203.1973608325905
 30
0.0
 11
124.447442188859
 21
205.5992846212372
 31
0.0
  0
ARC
  5
74
330
1F
100
AcDbEntity
  8
VISIBLE
100
AcDbCircle
 10
-125.947442188859
 20
203.1973608325905
 30
0.0000000000000315
 40
1.5
210
4.650782864387937E-32
220
1.556362817145250E-16
230
-1.0
100
AcDbArc
 50
180.0
 51
0.0
  0
LINE
  5
75
330
1F
100
AcDbEntity
  8
VISIBLE
100
AcDbLine
 10
127.447442188859
 20
203.1973608325905
 30
0.0
 11
127.447442188859
 21
205.5992846212372
 31
0.0
  0
ARC
  5
76
330
1F
100
AcDbEntity
  8
VISIBLE
100
AcDbCircle
 10
125.947442188859
 20
208.1973608325905
 30
0.0
 40
3.0
100
AcDbArc
 50
300.0
 51
240.0
  0
LINE
  5
77
330
1F
100
AcDbEntity
  8
VISIBLE
100
AcDbLine
 10
100.3835886418819
 20
203.1973608325905
 30
0.0
 11
100.3835886418819
 21
205.5992846212372
 31
0.0
  0
ARC
  5
78
330
1F
100
AcDbEntity
  8
VISIBLE
100
AcDbCircle
 10
-101.8835886418819
 20
203.1973608325905
 30
0.0000000000000315
 40
1.5
210
4.650782864387937E-32
220
1.556362817145250E-16
230
-1.0
100
AcDbArc
 50
180.0
 51
0.0
  0
LINE
  5
79
330
1F
100
AcDbEntity
  8
VISIBLE
100
AcDbLine
 10
103.3835886418819
 20
203.1973608325905
 30
0.0
 11
103.3835886418819
 21
205.5992846212372
 31
0.0
  0
ARC
  5
7A
330
1F
100
AcDbEntity
  8
VISIBLE
100
AcDbCircle
 10
101.8835886418819
 20
208.1973608325905
 30
0.0
 40
3.0
100
AcDbArc
 50
300.0
 51
240.0
  0
LINE
  5
7B
330
1F
100
AcDbEntity
  8
VISIBLE
100
AcDbLine
 10
73.81608581542963
 20
166.1985915492958
 30
0.0
 11
73.81608581542963
 21
162.1985915492958
 31
0.0
  0
ARC
  5
7C
330
1F
100
AcDbEntity
  8
VISIBLE
100
AcDbCircle
 10
74.81608581542963
 20
162.1985915492958
 30
0.0000000000000001
 40
1.0
100
AcDbArc
 50
180.0000000000016
 51
359.9999999999984
  0
LINE
  5
7D
330
1F
100
AcDbEntity
  8
VISIBLE
100
AcDbLine
 10
75.81608581542963
 20
166.1985915492958
 30
0.0
 11
75.81608581542963
 21
162.1985915492958
 31
0.0
  0
ARC
  5
7E
330
1F
100
AcDbEntity
  8
VISIBLE
100
AcDbCircle
 10
74.81608581542963
 20
166.1985915492958
 30
-0.0000000000000001
 40
1.0
100
AcDbArc
 50
359.9999999999984
 51
180.0000000000016
  0
LINE
  5
7F
330
1F
100
AcDbEntity
  8
VISIBLE
100
AcDbLine
 10
196.0575757622718
 20
323.0528969358393
 30
0.0
 11
196.0575757622718
 21
314.7595662664363
 31
0.0
  0
ARC
  5
80
330
1F
100
AcDbEntity
  8
VISIBLE
100
AcDbCircle
 10
200.0575757622718
 20
314.7595662664363
 30
0.0000000000000003
 40
4.0
100
AcDbArc
 50
180.0000000000008
 51
359.9999999999992
  0
LINE
  5
81
330
1F
100
AcDbEntity
  8
VISIBLE
100
AcDbLine
 10
204.0575757622718
 20
323.0528969358393
 30
0.0
 11
204.0575757622718
 21
314.7595662664363
 31
0.0
  0
ARC
  5
82
330
1F
100
AcDbEntity
  8
VISIBLE
100
AcDbCircle
 10
200.0575757622718
 20
323.0528969358393
 30
-0.0000000000000003
 40
4.0
100
AcDbArc
 50
0.0000000000008142
 51
179.9999999999992
  0
CIRCLE
  5
83
330
1F
100
AcDbEntity
  8
VISIBLE
100
AcDbCircle
 10
157.571576565504
 20
311.6402929018923
 30
0.0
 40
1.5
  0
CIRCLE
  5
84
330
1F
100
AcDbEntity
  8
VISIBLE
100
AcDbCircle
 10
188.5715765655041
 20
342.6402929018923
 30
0.0
 40
1.5
  0
LINE
  5
85
330
1F
100
AcDbEntity
  8
VISIBLE
100
AcDbLine
 10
77.25
 20
352.7985915492958
 30
0.0
 11
69.25
 21
352.7985915492958
 31
0.0
  0
LINE
  5
86
330
1F
100
AcDbEntity
  8
VISIBLE
100
AcDbLine
 10
77.25
 20
358.5985915492957
 30
0.0
 11
77.25
 21
352.7985915492958
 31
0.0
  0
LINE
  5
87
330
1F
100
AcDbEntity
  8
VISIBLE
100
AcDbLine
 10
77.25
 20
358.5985915492957
 30
0.0
 11
69.25
 21
358.5985915492957
 31
0.0
  0
LINE
  5
88
330
1F
100
AcDbEntity
  8
VISIBLE
100
AcDbLine
 10
69.25
 20
358.5985915492957
 30
0.0
 11
69.25
 21
352.7985915492958
 31
0.0
  0
LINE
  5
89
330
1F
100
AcDbEntity
  8
VISIBLE
100
AcDbLine
 10
77.24999999999997
 20
122.7985915492958
 30
0.0
 11
69.24999999999997
 21
122.7985915492958
 31
0.0
  0
LINE
  5
8A
330
1F
100
AcDbEntity
  8
VISIBLE
100
AcDbLine
 10
77.24999999999997
 20
128.5985915492958
 30
0.0
 11
77.24999999999997
 21
122.7985915492958
 31
0.0
  0
LINE
  5
8B
330
1F
100
AcDbEntity
  8
VISIBLE
100
AcDbLine
 10
77.24999999999997
 20
128.5985915492958
 30
0.0
 11
69.24999999999997
 21
128.5985915492958
 31
0.0
  0
LINE
  5
8C
330
1F
100
AcDbEntity
  8
VISIBLE
100
AcDbLine
 10
69.24999999999997
 20
128.5985915492958
 30
0.0
 11
69.24999999999997
 21
122.7985915492958
 31
0.0
  0
CIRCLE
  5
8D
330
1F
100
AcDbEntity
  8
VISIBLE
100
AcDbCircle
 10
164.75
 20
355.6985915492958
 30
0.0
 40
1.5
  0
CIRCLE
  5
8E
330
1F
100
AcDbEntity
  8
VISIBLE
100
AcDbCircle
 10
164.75
 20
125.6985915492958
 30
0.0
 40
1.5
  0
LINE
  5
8F
330
1F
100
AcDbEntity
  8
VISIBLE
100
AcDbLine
 10
177.25
 20
122.7985915492958
 30
0.0
 11
169.25
 21
122.7985915492958
 31
0.0
  0
LINE
  5
90
330
1F
100
AcDbEntity
  8
VISIBLE
100
AcDbLine
 10
177.25
 20
128.5985915492958
 30
0.0
 11
177.25
 21
122.7985915492958
 31
0.0
  0
LINE
  5
91
330
1F
100
AcDbEntity
  8
VISIBLE
100
AcDbLine
 10
177.25
 20
128.5985915492958
 30
0.0
 11
169.25
 21
128.5985915492958
 31
0.0
  0
LINE
  5
92
330
1F
100
AcDbEntity
  8
VISIBLE
100
AcDbLine
 10
169.25
 20
128.5985915492958
 30
0.0
 11
169.25
 21
122.7985915492958
 31
0.0
  0
LINE
  5
93
330
1F
100
AcDbEntity
  8
VISIBLE
100
AcDbLine
 10
152.25
 20
122.7985915492958
 30
0.0
 11
160.25
 21
122.7985915492958
 31
0.0
  0
LINE
  5
94
330
1F
100
AcDbEntity
  8
VISIBLE
100
AcDbLine
 10
160.25
 20
128.5985915492958
 30
0.0
 11
160.25
 21
122.7985915492958
 31
0.0
  0
LINE
  5
95
330
1F
100
AcDbEntity
  8
VISIBLE
100
AcDbLine
 10
152.25
 20
128.5985915492958
 30
0.0
 11
160.25
 21
128.5985915492958
 31
0.0
  0
LINE
  5
96
330
1F
100
AcDbEntity
  8
VISIBLE
100
AcDbLine
 10
152.25
 20
128.5985915492958
 30
0.0
 11
152.25
 21
122.7985915492958
 31
0.0
  0
CIRCLE
  5
97
330
1F
100
AcDbEntity
  8
VISIBLE
100
AcDbCircle
 10
-64.74999999999997
 20
125.6985915492958
 30
0.0000000000000156
 40
1.5
210
-6.123233995736766E-17
220
1.556362817145250E-16
230
-1.0
  0
LINE
  5
98
330
1F
100
AcDbEntity
  8
VISIBLE
100
AcDbLine
 10
182.1831627190112
 20
91.63865866174166
 30
0.0
 11
192.1831627190113
 21
91.63865866174166
 31
0.0
  0
LINE
  5
99
330
1F
100
AcDbEntity
  8
VISIBLE
100
AcDbLine
 10
192.1831627190113
 20
94.63865866174166
 30
0.0
 11
192.1831627190113
 21
91.63865866174166
 31
0.0
  0
LINE
  5
9A
330
1F
100
AcDbEntity
  8
VISIBLE
100
AcDbLine
 10
182.1831627190112
 20
94.63865866174166
 30
0.0
 11
192.1831627190113
 21
94.63865866174166
 31
0.0
  0
LINE
  5
9B
330
1F
100
AcDbEntity
  8
VISIBLE
100
AcDbLine
 10
182.1831627190112
 20
94.63865866174166
 30
0.0
 11
182.1831627190112
 21
91.63865866174166
 31
0.0
  0
LINE
  5
9C
330
1F
100
AcDbEntity
  8
VISIBLE
100
AcDbLine
 10
182.1831627190112
 20
98.63865866174166
 30
0.0
 11
192.1831627190113
 21
98.63865866174166
 31
0.0
  0
LINE
  5
9D
330
1F
100
AcDbEntity
  8
VISIBLE
100
AcDbLine
 10
192.1831627190113
 20
101.6386586617417
 30
0.0
 11
192.1831627190113
 21
98.63865866174166
 31
0.0
  0
LINE
  5
9E
330
1F
100
AcDbEntity
  8
VISIBLE
100
AcDbLine
 10
182.1831627190112
 20
101.6386586617417
 30
0.0
 11
192.1831627190113
 21
101.6386586617417
 31
0.0
  0
LINE
  5
9F
330
1F
100
AcDbEntity
  8
VISIBLE
100
AcDbLine
 10
182.1831627190112
 20
101.6386586617417
 30
0.0
 11
182.1831627190112
 21
98.63865866174166
 31
0.0
  0
LINE
  5
A0
330
1F
100
AcDbEntity
  8
VISIBLE
100
AcDbLine
 10
182.1831627190112
 20
105.6386586617417
 30
0.0
 11
192.1831627190113
 21
105.6386586617417
 31
0.0
  0
LINE
  5
A1
330
1F
100
AcDbEntity
  8
VISIBLE
100
AcDbLine
 10
192.1831627190113
 20
108.6386586617417
 30
0.0
 11
192.1831627190113
 21
105.6386586617417
 31
0.0
  0
LINE
  5
A2
330
1F
100
AcDbEntity
  8
VISIBLE
100
AcDbLine
 10
182.1831627190112
 20
108.6386586617417
 30
0.0
 11
192.1831627190113
 21
108.6386586617417
 31
0.0
  0
LINE
  5
A3
330
1F
100
AcDbEntity
  8
VISIBLE
100
AcDbLine
 10
182.1831627190112
 20
108.6386586617417
 30
0.0
 11
182.1831627190112
 21
105.6386586617417
 31
0.0
  0
LINE
  5
A4
330
1F
100
AcDbEntity
  8
VISIBLE
100
AcDbLine
 10
182.1831627190112
 20
112.6386586617417
 30
0.0
 11
192.1831627190113
 21
112.6386586617417
 31
0.0
  0
LINE
  5
A5
330
1F
100
AcDbEntity
  8
VISIBLE
100
AcDbLine
 10
192.1831627190113
 20
115.6386586617417
 30
0.0
 11
192.1831627190113
 21
112.6386586617417
 31
0.0
  0
LINE
  5
A6
330
1F
100
AcDbEntity
  8
VISIBLE
100
AcDbLine
 10
182.1831627190112
 20
115.6386586617417
 30
0.0
 11
192.1831627190113
 21
115.6386586617417
 31
0.0
  0
LINE
  5
A7
330
1F
100
AcDbEntity
  8
VISIBLE
100
AcDbLine
 10
182.1831627190112
 20
115.6386586617417
 30
0.0
 11
182.1831627190112
 21
112.6386586617417
 31
0.0
  0
LINE
  5
A8
330
1F
100
AcDbEntity
  8
VISIBLE
100
AcDbLine
 10
169.1831627190113
 20
91.63865866174166
 30
0.0
 11
179.1831627190112
 21
91.63865866174166
 31
0.0
  0
LINE
  5
A9
330
1F
100
AcDbEntity
  8
VISIBLE
100
AcDbLine
 10
179.1831627190112
 20
94.63865866174166
 30
0.0
 11
179.1831627190112
 21
91.63865866174166
 31
0.0
  0
LINE
  5
AA
330
1F
100
AcDbEntity
  8
VISIBLE
100
AcDbLine
 10
169.1831627190113
 20
94.63865866174166
 30
0.0
 11
179.1831627190112
 21
94.63865866174166
 31
0.0
  0
LINE
  5
AB
330
1F
100
AcDbEntity
  8
VISIBLE
100
AcDbLine
 10
169.1831627190113
 20
94.63865866174166
 30
0.0
 11
169.1831627190113
 21
91.63865866174166
 31
0.0
  0
LINE
  5
AC
330
1F
100
AcDbEntity
  8
VISIBLE
100
AcDbLine
 10
169.1831627190113
 20
98.63865866174166
 30
0.0
 11
179.1831627190112
 21
98.63865866174166
 31
0.0
  0
LINE
  5
AD
330
1F
100
AcDbEntity
  8
VISIBLE
100
AcDbLine
 10
179.1831627190112
 20
101.6386586617417
 30
0.0
 11
179.1831627190112
 21
98.63865866174166
 31
0.0
  0
LINE
  5
AE
330
1F
100
AcDbEntity
  8
VISIBLE
100
AcDbLine
 10
169.1831627190113
 20
101.6386586617417
 30
0.0
 11
179.1831627190112
 21
101.6386586617417
 31
0.0
  0
LINE
  5
AF
330
1F
100
AcDbEntity
  8
VISIBLE
100
AcDbLine
 10
169.1831627190113
 20
101.6386586617417
 30
0.0
 11
169.1831627190113
 21
98.63865866174166
 31
0.0
  0
LINE
  5
B0
330
1F
100
AcDbEntity
  8
VISIBLE
100
AcDbLine
 10
169.1831627190113
 20
105.6386586617417
 30
0.0
 11
179.1831627190112
 21
105.6386586617417
 31
0.0
  0
LINE
  5
B1
330
1F
100
AcDbEntity
  8
VISIBLE
100
AcDbLine
 10
179.1831627190112
 20
108.6386586617417
 30
0.0
 11
179.1831627190112
 21
105.6386586617417
 31
0.0
  0
LINE
  5
B2
330
1F
100
AcDbEntity
  8
VISIBLE
100
AcDbLine
 10
169.1831627190113
 20
108.6386586617417
 30
0.0
 11
179.1831627190112
 21
108.6386586617417
 31
0.0
  0
LINE
  5
B3
330
1F
100
AcDbEntity
  8
VISIBLE
100
AcDbLine
 10
169.1831627190113
 20
108.6386586617417
 30
0.0
 11
169.1831627190113
 21
105.6386586617417
 31
0.0
  0
LINE
  5
B4
330
1F
100
AcDbEntity
  8
VISIBLE
100
AcDbLine
 10
169.1831627190113
 20
112.6386586617417
 30
0.0
 11
179.1831627190112
 21
112.6386586617417
 31
0.0
  0
LINE
  5
B5
330
1F
100
AcDbEntity
  8
VISIBLE
100
AcDbLine
 10
179.1831627190112
 20
115.6386586617417
 30
0.0
 11
179.1831627190112
 21
112.6386586617417
 31
0.0
  0
LINE
  5
B6
330
1F
100
AcDbEntity
  8
VISIBLE
100
AcDbLine
 10
169.1831627190113
 20
115.6386586617417
 30
0.0
 11
179.1831627190112
 21
115.6386586617417
 31
0.0
  0
LINE
  5
B7
330
1F
100
AcDbEntity
  8
VISIBLE
100
AcDbLine
 10
169.1831627190113
 20
115.6386586617417
 30
0.0
 11
169.1831627190113
 21
112.6386586617417
 31
0.0
  0
LINE
  5
B8
330
1F
100
AcDbEntity
  8
VISIBLE
100
AcDbLine
 10
156.1831627190113
 20
91.63865866174166
 30
0.0
 11
166.1831627190113
 21
91.63865866174166
 31
0.0
  0
LINE
  5
B9
330
1F
100
AcDbEntity
  8
VISIBLE
100
AcDbLine
 10
166.1831627190113
 20
94.63865866174166
 30
0.0
 11
166.1831627190113
 21
91.63865866174166
 31
0.0
  0
LINE
  5
BA
330
1F
100
AcDbEntity
  8
VISIBLE
100
AcDbLine
 10
156.1831627190113
 20
94.63865866174166
 30
0.0
 11
166.1831627190113
 21
94.63865866174166
 31
0.0
  0
LINE
  5
BB
330
1F
100
AcDbEntity
  8
VISIBLE
100
AcDbLine
 10
156.1831627190113
 20
94.63865866174166
 30
0.0
 11
156.1831627190113
 21
91.63865866174166
 31
0.0
  0
LINE
  5
BC
330
1F
100
AcDbEntity
  8
VISIBLE
100
AcDbLine
 10
156.1831627190113
 20
98.63865866174166
 30
0.0
 11
166.1831627190113
 21
98.63865866174166
 31
0.0
  0
LINE
  5
BD
330
1F
100
AcDbEntity
  8
VISIBLE
100
AcDbLine
 10
166.1831627190113
 20
101.6386586617417
 30
0.0
 11
166.1831627190113
 21
98.63865866174166
 31
0.0
  0
LINE
  5
BE
330
1F
100
AcDbEntity
  8
VISIBLE
100
AcDbLine
 10
156.1831627190113
 20
101.6386586617417
 30
0.0
 11
166.1831627190113
 21
101.6386586617417
 31
0.0
  0
LINE
  5
BF
330
1F
100
AcDbEntity
  8
VISIBLE
100
AcDbLine
 10
156.1831627190113
 20
101.6386586617417
 30
0.0
 11
156.1831627190113
 21
98.63865866174166
 31
0.0
  0
LINE
  5
C0
330
1F
100
AcDbEntity
  8
VISIBLE
100
AcDbLine
 10
156.1831627190113
 20
105.6386586617417
 30
0.0
 11
166.1831627190113
 21
105.6386586617417
 31
0.0
  0
LINE
  5
C1
330
1F
100
AcDbEntity
  8
VISIBLE
100
AcDbLine
 10
166.1831627190113
 20
108.6386586617417
 30
0.0
 11
166.1831627190113
 21
105.6386586617417
 31
0.0
  0
LINE
  5
C2
330
1F
100
AcDbEntity
  8
VISIBLE
100
AcDbLine
 10
156.1831627190113
 20
108.6386586617417
 30
0.0
 11
166.1831627190113
 21
108.6386586617417
 31
0.0
  0
LINE
  5
C3
330
1F
100
AcDbEntity
  8
VISIBLE
100
AcDbLine
 10
156.1831627190113
 20
108.6386586617417
 30
0.0
 11
156.1831627190113
 21
105.6386586617417
 31
0.0
  0
LINE
  5
C4
330
1F
100
AcDbEntity
  8
VISIBLE
100
AcDbLine
 10
156.1831627190113
 20
112.6386586617417
 30
0.0
 11
166.1831627190113
 21
112.6386586617417
 31
0.0
  0
LINE
  5
C5
330
1F
100
AcDbEntity
  8
VISIBLE
100
AcDbLine
 10
166.1831627190113
 20
115.6386586617417
 30
0.0
 11
166.1831627190113
 21
112.6386586617417
 31
0.0
  0
LINE
  5
C6
330
1F
100
AcDbEntity
  8
VISIBLE
100
AcDbLine
 10
156.1831627190113
 20
115.6386586617417
 30
0.0
 11
166.1831627190113
 21
115.6386586617417
 31
0.0
  0
LINE
  5
C7
330
1F
100
AcDbEntity
  8
VISIBLE
100
AcDbLine
 10
156.1831627190113
 20
115.6386586617417
 30
0.0
 11
156.1831627190113
 21
112.6386586617417
 31
0.0
  0
LINE
  5
C8
330
1F
100
AcDbEntity
  8
VISIBLE
100
AcDbLine
 10
143.1831627190113
 20
91.63865866174166
 30
0.0
 11
153.1831627190113
 21
91.63865866174166
 31
0.0
  0
LINE
  5
C9
330
1F
100
AcDbEntity
  8
VISIBLE
100
AcDbLine
 10
153.1831627190113
 20
94.63865866174166
 30
0.0
 11
153.1831627190113
 21
91.63865866174166
 31
0.0
  0
LINE
  5
CA
330
1F
100
AcDbEntity
  8
VISIBLE
100
AcDbLine
 10
143.1831627190113
 20
94.63865866174166
 30
0.0
 11
153.1831627190113
 21
94.63865866174166
 31
0.0
  0
LINE
  5
CB
330
1F
100
AcDbEntity
  8
VISIBLE
100
AcDbLine
 10
143.1831627190113
 20
94.63865866174166
 30
0.0
 11
143.1831627190113
 21
91.63865866174166
 31
0.0
  0
LINE
  5
CC
330
1F
100
AcDbEntity
  8
VISIBLE
100
AcDbLine
 10
143.1831627190113
 20
98.63865866174166
 30
0.0
 11
153.1831627190113
 21
98.63865866174166
 31
0.0
  0
LINE
  5
CD
330
1F
100
AcDbEntity
  8
VISIBLE
100
AcDbLine
 10
153.1831627190113
 20
101.6386586617417
 30
0.0
 11
153.1831627190113
 21
98.63865866174166
 31
0.0
  0
LINE
  5
CE
330
1F
100
AcDbEntity
  8
VISIBLE
100
AcDbLine
 10
143.1831627190113
 20
101.6386586617417
 30
0.0
 11
153.1831627190113
 21
101.6386586617417
 31
0.0
  0
LINE
  5
CF
330
1F
100
AcDbEntity
  8
VISIBLE
100
AcDbLine
 10
143.1831627190113
 20
101.6386586617417
 30
0.0
 11
143.1831627190113
 21
98.63865866174166
 31
0.0
  0
LINE
  5
D0
330
1F
100
AcDbEntity
  8
VISIBLE
100
AcDbLine
 10
143.1831627190113
 20
105.6386586617417
 30
0.0
 11
153.1831627190113
 21
105.6386586617417
 31
0.0
  0
LINE
  5
D1
330
1F
100
AcDbEntity
  8
VISIBLE
100
AcDbLine
 10
153.1831627190113
 20
108.6386586617417
 30
0.0
 11
153.1831627190113
 21
105.6386586617417
 31
0.0
  0
LINE
  5
D2
330
1F
100
AcDbEntity
  8
VISIBLE
100
AcDbLine
 10
143.1831627190113
 20
108.6386586617417
 30
0.0
 11
153.1831627190113
 21
108.6386586617417
 31
0.0
  0
LINE
  5
D3
330
1F
100
AcDbEntity
  8
VISIBLE
100
AcDbLine
 10
143.1831627190113
 20
108.6386586617417
 30
0.0
 11
143.1831627190113
 21
105.6386586617417
 31
0.0
  0
LINE
  5
D4
330
1F
100
AcDbEntity
  8
VISIBLE
100
AcDbLine
 10
143.1831627190113
 20
112.6386586617417
 30
0.0
 11
153.1831627190113
 21
112.6386586617417
 31
0.0
  0
LINE
  5
D5
330
1F
100
AcDbEntity
  8
VISIBLE
100
AcDbLine
 10
153.1831627190113
 20
115.6386586617417
 30
0.0
 11
153.1831627190113
 21
112.6386586617417
 31
0.0
  0
LINE
  5
D6
330
1F
100
AcDbEntity
  8
VISIBLE
100
AcDbLine
 10
143.1831627190113
 20
115.6386586617417
 30
0.0
 11
153.1831627190113
 21
115.6386586617417
 31
0.0
  0
LINE
  5
D7
330
1F
100
AcDbEntity
  8
VISIBLE
100
AcDbLine
 10
143.1831627190113
 20
115.6386586617417
 30
0.0
 11
143.1831627190113
 21
112.6386586617417
 31
0.0
  0
LINE
  5
D8
330
1F
100
AcDbEntity
  8
VISIBLE
100
AcDbLine
 10
52.24999999999997
 20
122.7985915492958
 30
0.0
 11
60.24999999999997
 21
122.7985915492958
 31
0.0
  0
LINE
  5
D9
330
1F
100
AcDbEntity
  8
VISIBLE
100
AcDbLine
 10
60.24999999999997
 20
128.5985915492958
 30
0.0
 11
60.24999999999997
 21
122.7985915492958
 31
0.0
  0
LINE
  5
DA
330
1F
100
AcDbEntity
  8
VISIBLE
100
AcDbLine
 10
52.24999999999997
 20
128.5985915492958
 30
0.0
 11
60.24999999999997
 21
128.5985915492958
 31
0.0
  0
LINE
  5
DB
330
1F
100
AcDbEntity
  8
VISIBLE
100
AcDbLine
 10
52.24999999999997
 20
128.5985915492958
 30
0.0
 11
52.24999999999997
 21
122.7985915492958
 31
0.0
  0
LINE
  5
DC
330
1F
100
AcDbEntity
  8
VISIBLE
100
AcDbLine
 10
160.25
 20
358.5985915492957
 30
0.0
 11
160.25
 21
352.7985915492958
 31
0.0
  0
LINE
  5
DD
330
1F
100
AcDbEntity
  8
VISIBLE
100
AcDbLine
 10
152.25
 20
358.5985915492957
 30
0.0
 11
160.25
 21
358.5985915492957
 31
0.0
  0
LINE
  5
DE
330
1F
100
AcDbEntity
  8
VISIBLE
100
AcDbLine
 10
152.25
 20
358.5985915492957
 30
0.0
 11
152.25
 21
352.7985915492958
 31
0.0
  0
LINE
  5
DF
330
1F
100
AcDbEntity
  8
VISIBLE
100
AcDbLine
 10
177.25
 20
352.7985915492958
 30
0.0
 11
169.25
 21
352.7985915492958
 31
0.0
  0
LINE
  5
E0
330
1F
100
AcDbEntity
  8
VISIBLE
100
AcDbLine
 10
177.25
 20
358.5985915492957
 30
0.0
 11
177.25
 21
352.7985915492958
 31
0.0
  0
LINE
  5
E1
330
1F
100
AcDbEntity
  8
VISIBLE
100
AcDbLine
 10
177.25
 20
358.5985915492957
 30
0.0
 11
169.25
 21
358.5985915492957
 31
0.0
  0
LINE
  5
E2
330
1F
100
AcDbEntity
  8
VISIBLE
100
AcDbLine
 10
169.25
 20
358.5985915492957
 30
0.0
 11
169.25
 21
352.7985915492958
 31
0.0
  0
CIRCLE
  5
E3
330
1F
100
AcDbEntity
  8
VISIBLE
100
AcDbCircle
 10
-64.75
 20
355.6985915492958
 30
0.0000000000000514
 40
1.5
210
-6.123233995736766E-17
220
1.556362817145250E-16
230
-1.0
  0
LINE
  5
E4
330
1F
100
AcDbEntity
  8
VISIBLE
100
AcDbLine
 10
52.25
 20
352.7985915492958
 30
0.0
 11
60.25
 21
352.7985915492958
 31
0.0
  0
LINE
  5
E5
330
1F
100
AcDbEntity
  8
VISIBLE
100
AcDbLine
 10
60.25
 20
358.5985915492957
 30
0.0
 11
60.25
 21
352.7985915492958
 31
0.0
  0
LINE
  5
E6
330
1F
100
AcDbEntity
  8
VISIBLE
100
AcDbLine
 10
52.25
 20
358.5985915492957
 30
0.0
 11
60.25
 21
358.5985915492957
 31
0.0
  0
LINE
  5
E7
330
1F
100
AcDbEntity
  8
VISIBLE
100
AcDbLine
 10
52.25
 20
358.5985915492957
 30
0.0
 11
52.25
 21
352.7985915492958
 31
0.0
  0
LINE
  5
E8
330
1F
100
AcDbEntity
  8
VISIBLE
100
AcDbLine
 10
209.75
 20
342.3610367845482
 30
0.0
 11
214.75
 21
342.3610367845482
 31
0.0
  0
LINE
  5
E9
330
1F
100
AcDbEntity
  8
VISIBLE
100
AcDbLine
 10
209.75
 20
342.3610367845482
 30
0.0
 11
209.75
 21
339.2860367845483
 31
0.0
  0
LINE
  5
EA
330
1F
100
AcDbEntity
  8
VISIBLE
100
AcDbLine
 10
201.75
 20
339.2860367845483
 30
0.0
 11
209.75
 21
339.2860367845483
 31
0.0
  0
LINE
  5
EB
330
1F
100
AcDbEntity
  8
VISIBLE
100
AcDbLine
 10
201.75
 20
339.2860367845483
 30
0.0
 11
201.75
 21
340.5610367845483
 31
0.0
  0
LINE
  5
EC
330
1F
100
AcDbEntity
  8
VISIBLE
100
AcDbLine
 10
198.85
 20
340.5610367845483
 30
0.0
 11
201.75
 21
340.5610367845483
 31
0.0
  0
LINE
  5
ED
330
1F
100
AcDbEntity
  8
VISIBLE
100
AcDbLine
 10
198.85
 20
339.2860367845483
 30
0.0
 11
198.85
 21
340.5610367845483
 31
0.0
  0
LINE
  5
EE
330
1F
100
AcDbEntity
  8
VISIBLE
100
AcDbLine
 10
196.85
 20
339.2860367845483
 30
0.0
 11
198.85
 21
339.2860367845483
 31
0.0
  0
LINE
  5
EF
330
1F
100
AcDbEntity
  8
VISIBLE
100
AcDbLine
 10
196.85
 20
336.3360367845482
 30
0.0
 11
196.85
 21
339.2860367845483
 31
0.0
  0
LINE
  5
F0
330
1F
100
AcDbEntity
  8
VISIBLE
100
AcDbLine
 10
196.85
 20
336.3360367845482
 30
0.0
 11
198.85
 21
336.3360367845482
 31
0.0
  0
LINE
  5
F1
330
1F
100
AcDbEntity
  8
VISIBLE
100
AcDbLine
 10
198.85
 20
335.0610367845483
 30
0.0
 11
198.85
 21
336.3360367845482
 31
0.0
  0
LINE
  5
F2
330
1F
100
AcDbEntity
  8
VISIBLE
100
AcDbLine
 10
198.85
 20
335.0610367845483
 30
0.0
 11
201.75
 21
335.0610367845483
 31
0.0
  0
LINE
  5
F3
330
1F
100
AcDbEntity
  8
VISIBLE
100
AcDbLine
 10
201.75
 20
335.0610367845483
 30
0.0
 11
201.75
 21
336.3360367845482
 31
0.0
  0
LINE
  5
F4
330
1F
100
AcDbEntity
  8
VISIBLE
100
AcDbLine
 10
201.75
 20
336.3360367845482
 30
0.0
 11
209.75
 21
336.3360367845482
 31
0.0
  0
LINE
  5
F5
330
1F
100
AcDbEntity
  8
VISIBLE
100
AcDbLine
 10
209.75
 20
336.3360367845482
 30
0.0
 11
209.75
 21
333.2610367845483
 31
0.0
  0
LINE
  5
F6
330
1F
100
AcDbEntity
  8
VISIBLE
100
AcDbLine
 10
209.75
 20
333.2610367845483
 30
0.0
 11
214.75
 21
333.2610367845483
 31
0.0
  0
LINE
  5
F7
330
1F
100
AcDbEntity
  8
VISIBLE
100
AcDbLine
 10
214.75
 20
333.2610367845483
 30
0.0
 11
214.75
 21
325.3610367845483
 31
0.0
  0
LINE
  5
F8
330
1F
100
AcDbEntity
  8
VISIBLE
100
AcDbLine
 10
209.75
 20
325.3610367845483
 30
0.0
 11
214.75
 21
325.3610367845483
 31
0.0
  0
LINE
  5
F9
330
1F
100
AcDbEntity
  8
VISIBLE
100
AcDbLine
 10
209.75
 20
325.3610367845483
 30
0.0
 11
209.75
 21
236.2610367845483
 31
0.0
  0
LINE
  5
FA
330
1F
100
AcDbEntity
  8
VISIBLE
100
AcDbLine
 10
209.75
 20
236.2610367845483
 30
0.0
 11
214.75
 21
236.2610367845483
 31
0.0
  0
LINE
  5
FB
330
1F
100
AcDbEntity
  8
VISIBLE
100
AcDbLine
 10
214.75
 20
236.2610367845483
 30
0.0
 11
214.75
 21
228.3610367845483
 31
0.0
  0
LINE
  5
FC
330
1F
100
AcDbEntity
  8
VISIBLE
100
AcDbLine
 10
209.75
 20
228.3610367845483
 30
0.0
 11
214.75
 21
228.3610367845483
 31
0.0
  0
LINE
  5
FD
330
1F
100
AcDbEntity
  8
VISIBLE
100
AcDbLine
 10
209.75
 20
228.3610367845483
 30
0.0
 11
209.75
 21
225.2860367845483
 31
0.0
  0
LINE
  5
FE
330
1F
100
AcDbEntity
  8
VISIBLE
100
AcDbLine
 10
201.75
 20
225.2860367845483
 30
0.0
 11
209.75
 21
225.2860367845483
 31
0.0
  0
LINE
  5
FF
330
1F
100
AcDbEntity
  8
VISIBLE
100
AcDbLine
 10
201.75
 20
225.2860367845483
 30
0.0
 11
201.75
 21
226.5610367845482
 31
0.0
  0
LINE
  5
100
330
1F
100
AcDbEntity
  8
VISIBLE
100
AcDbLine
 10
198.85
 20
226.5610367845482
 30
0.0
 11
201.75
 21
226.5610367845482
 31
0.0
  0
LINE
  5
101
330
1F
100
AcDbEntity
  8
VISIBLE
100
AcDbLine
 10
198.85
 20
225.2860367845483
 30
0.0
 11
198.85
 21
226.5610367845482
 31
0.0
  0
LINE
  5
102
330
1F
100
AcDbEntity
  8
VISIBLE
100
AcDbLine
 10
196.85
 20
225.2860367845483
 30
0.0
 11
198.85
 21
225.2860367845483
 31
0.0
  0
LINE
  5
103
330
1F
100
AcDbEntity
  8
VISIBLE
100
AcDbLine
 10
196.85
 20
222.3360367845482
 30
0.0
 11
196.85
 21
225.2860367845483
 31
0.0
  0
LINE
  5
104
330
1F
100
AcDbEntity
  8
VISIBLE
100
AcDbLine
 10
196.85
 20
222.3360367845482
 30
0.0
 11
198.85
 21
222.3360367845482
 31
0.0
  0
LINE
  5
105
330
1F
100
AcDbEntity
  8
VISIBLE
100
AcDbLine
 10
198.85
 20
221.0610367845482
 30
0.0
 11
198.85
 21
222.3360367845482
 31
0.0
  0
LINE
  5
106
330
1F
100
AcDbEntity
  8
VISIBLE
100
AcDbLine
 10
198.85
 20
221.0610367845482
 30
0.0
 11
201.75
 21
221.0610367845482
 31
0.0
  0
LINE
  5
107
330
1F
100
AcDbEntity
  8
VISIBLE
100
AcDbLine
 10
201.75
 20
221.0610367845482
 30
0.0
 11
201.75
 21
222.3360367845482
 31
0.0
  0
LINE
  5
108
330
1F
100
AcDbEntity
  8
VISIBLE
100
AcDbLine
 10
201.75
 20
222.3360367845482
 30
0.0
 11
209.75
 21
222.3360367845482
 31
0.0
  0
LINE
  5
109
330
1F
100
AcDbEntity
  8
VISIBLE
100
AcDbLine
 10
209.75
 20
222.3360367845482
 30
0.0
 11
209.75
 21
219.2610367845483
 31
0.0
  0
LINE
  5
10A
330
1F
100
AcDbEntity
  8
VISIBLE
100
AcDbLine
 10
209.75
 20
219.2610367845483
 30
0.0
 11
214.75
 21
219.2610367845483
 31
0.0
  0
LINE
  5
10B
330
1F
100
AcDbEntity
  8
VISIBLE
100
AcDbLine
 10
214.75
 20
219.2610367845483
 30
0.0
 11
214.75
 21
211.3610367845483
 31
0.0
  0
LINE
  5
10C
330
1F
100
AcDbEntity
  8
VISIBLE
100
AcDbLine
 10
209.75
 20
211.3610367845483
 30
0.0
 11
214.75
 21
211.3610367845483
 31
0.0
  0
LINE
  5
10D
330
1F
100
AcDbEntity
  8
VISIBLE
100
AcDbLine
 10
209.75
 20
211.3610367845483
 30
0.0
 11
209.75
 21
122.1929607104249
 31
0.0
  0
LINE
  5
10E
330
1F
100
AcDbEntity
  8
VISIBLE
100
AcDbLine
 10
209.75
 20
122.1929607104249
 30
0.0
 11
214.75
 21
122.1929607104249
 31
0.0
  0
LINE
  5
10F
330
1F
100
AcDbEntity
  8
VISIBLE
100
AcDbLine
 10
214.75
 20
122.1929607104249
 30
0.0
 11
214.75
 21
114.2929607104248
 31
0.0
  0
LINE
  5
110
330
1F
100
AcDbEntity
  8
VISIBLE
100
AcDbLine
 10
209.75
 20
114.2929607104248
 30
0.0
 11
214.75
 21
114.2929607104248
 31
0.0
  0
LINE
  5
111
330
1F
100
AcDbEntity
  8
VISIBLE
100
AcDbLine
 10
209.75
 20
114.2929607104248
 30
0.0
 11
209.75
 21
111.2179607104249
 31
0.0
  0
LINE
  5
112
330
1F
100
AcDbEntity
  8
VISIBLE
100
AcDbLine
 10
201.75
 20
111.2179607104249
 30
0.0
 11
209.75
 21
111.2179607104249
 31
0.0
  0
LINE
  5
113
330
1F
100
AcDbEntity
  8
VISIBLE
100
AcDbLine
 10
201.75
 20
111.2179607104249
 30
0.0
 11
201.75
 21
112.4929607104249
 31
0.0
  0
LINE
  5
114
330
1F
100
AcDbEntity
  8
VISIBLE
100
AcDbLine
 10
198.85
 20
112.4929607104249
 30
0.0
 11
201.75
 21
112.4929607104249
 31
0.0
  0
LINE
  5
115
330
1F
100
AcDbEntity
  8
VISIBLE
100
AcDbLine
 10
198.85
 20
111.2179607104249
 30
0.0
 11
198.85
 21
112.4929607104249
 31
0.0
  0
LINE
  5
116
330
1F
100
AcDbEntity
  8
VISIBLE
100
AcDbLine
 10
196.85
 20
111.2179607104249
 30
0.0
 11
198.85
 21
111.2179607104249
 31
0.0
  0
LINE
  5
117
330
1F
100
AcDbEntity
  8
VISIBLE
100
AcDbLine
 10
196.85
 20
108.2679607104249
 30
0.0
 11
196.85
 21
111.2179607104249
 31
0.0
  0
LINE
  5
118
330
1F
100
AcDbEntity
  8
VISIBLE
100
AcDbLine
 10
196.85
 20
108.2679607104249
 30
0.0
 11
198.85
 21
108.2679607104248
 31
0.0
  0
LINE
  5
119
330
1F
100
AcDbEntity
  8
VISIBLE
100
AcDbLine
 10
198.85
 20
106.9929607104248
 30
0.0
 11
198.85
 21
108.2679607104248
 31
0.0
  0
LINE
  5
11A
330
1F
100
AcDbEntity
  8
VISIBLE
100
AcDbLine
 10
198.85
 20
106.9929607104248
 30
0.0
 11
201.75
 21
106.9929607104249
 31
0.0
  0
LINE
  5
11B
330
1F
100
AcDbEntity
  8
VISIBLE
100
AcDbLine
 10
201.75
 20
106.9929607104249
 30
0.0
 11
201.75
 21
108.2679607104248
 31
0.0
  0
LINE
  5
11C
330
1F
100
AcDbEntity
  8
VISIBLE
100
AcDbLine
 10
201.75
 20
108.2679607104248
 30
0.0
 11
209.75
 21
108.2679607104248
 31
0.0
  0
LINE
  5
11D
330
1F
100
AcDbEntity
  8
VISIBLE
100
AcDbLine
 10
209.75
 20
108.2679607104248
 30
0.0
 11
209.75
 21
105.1929607104248
 31
0.0
  0
LINE
  5
11E
330
1F
100
AcDbEntity
  8
VISIBLE
100
AcDbLine
 10
209.75
 20
105.1929607104248
 30
0.0
 11
214.75
 21
105.1929607104248
 31
0.0
  0
LINE
  5
11F
330
1F
100
AcDbEntity
  8
VISIBLE
100
AcDbLine
 10
214.75
 20
105.1929607104248
 30
0.0
 11
214.75
 21
97.29296071042481
 31
0.0
  0
LINE
  5
120
330
1F
100
AcDbEntity
  8
VISIBLE
100
AcDbLine
 10
209.75
 20
97.29296071042481
 30
0.0
 11
214.75
 21
97.29296071042481
 31
0.0
  0
LINE
  5
121
330
1F
100
AcDbEntity
  8
VISIBLE
100
AcDbLine
 10
209.75
 20
97.29296071042481
 30
0.0
 11
209.75
 21
68.19859154929577
 31
0.0
  0
LINE
  5
122
330
1F
100
AcDbEntity
  8
VISIBLE
100
AcDbLine
 10
19.74999999999999
 20
68.19859154929577
 30
0.0
 11
209.75
 21
68.19859154929577
 31
0.0
  0
LINE
  5
123
330
1F
100
AcDbEntity
  8
VISIBLE
100
AcDbLine
 10
19.74999999999999
 20
97.29296071042478
 30
0.0
 11
19.74999999999999
 21
68.19859154929577
 31
0.0
  0
LINE
  5
124
330
1F
100
AcDbEntity
  8
VISIBLE
100
AcDbLine
 10
19.74999999999999
 20
97.29296071042478
 30
0.0
 11
14.74999999999999
 21
97.29296071042478
 31
0.0
  0
LINE
  5
125
330
1F
100
AcDbEntity
  8
VISIBLE
100
AcDbLine
 10
14.74999999999999
 20
105.1929607104248
 30
0.0
 11
14.74999999999999
 21
97.29296071042478
 31
0.0
  0
LINE
  5
126
330
1F
100
AcDbEntity
  8
VISIBLE
100
AcDbLine
 10
19.74999999999999
 20
105.1929607104248
 30
0.0
 11
14.74999999999999
 21
105.1929607104248
 31
0.0
  0
LINE
  5
127
330
1F
100
AcDbEntity
  8
VISIBLE
100
AcDbLine
 10
19.74999999999999
 20
108.2679607104248
 30
0.0
 11
19.74999999999999
 21
105.1929607104248
 31
0.0
  0
LINE
  5
128
330
1F
100
AcDbEntity
  8
VISIBLE
100
AcDbLine
 10
27.74999999999999
 20
108.2679607104248
 30
0.0
 11
19.74999999999999
 21
108.2679607104248
 31
0.0
  0
LINE
  5
129
330
1F
100
AcDbEntity
  8
VISIBLE
100
AcDbLine
 10
27.74999999999999
 20
106.9929607104248
 30
0.0
 11
27.74999999999999
 21
108.2679607104248
 31
0.0
  0
LINE
  5
12A
330
1F
100
AcDbEntity
  8
VISIBLE
100
AcDbLine
 10
30.64999999999999
 20
106.9929607104248
 30
0.0
 11
27.74999999999999
 21
106.9929607104248
 31
0.0
  0
LINE
  5
12B
330
1F
100
AcDbEntity
  8
VISIBLE
100
AcDbLine
 10
30.64999999999999
 20
106.9929607104248
 30
0.0
 11
30.64999999999999
 21
108.2679607104248
 31
0.0
  0
LINE
  5
12C
330
1F
100
AcDbEntity
  8
VISIBLE
100
AcDbLine
 10
32.64999999999998
 20
108.2679607104248
 30
0.0
 11
30.64999999999999
 21
108.2679607104248
 31
0.0
  0
LINE
  5
12D
330
1F
100
AcDbEntity
  8
VISIBLE
100
AcDbLine
 10
32.64999999999998
 20
108.2679607104248
 30
0.0
 11
32.64999999999998
 21
111.2179607104248
 31
0.0
  0
LINE
  5
12E
330
1F
100
AcDbEntity
  8
VISIBLE
100
AcDbLine
 10
32.64999999999998
 20
111.2179607104248
 30
0.0
 11
30.64999999999999
 21
111.2179607104248
 31
0.0
  0
LINE
  5
12F
330
1F
100
AcDbEntity
  8
VISIBLE
100
AcDbLine
 10
30.64999999999999
 20
111.2179607104248
 30
0.0
 11
30.64999999999999
 21
112.4929607104248
 31
0.0
  0
LINE
  5
130
330
1F
100
AcDbEntity
  8
VISIBLE
100
AcDbLine
 10
30.64999999999999
 20
112.4929607104248
 30
0.0
 11
27.74999999999999
 21
112.4929607104248
 31
0.0
  0
LINE
  5
131
330
1F
100
AcDbEntity
  8
VISIBLE
100
AcDbLine
 10
27.74999999999999
 20
111.2179607104248
 30
0.0
 11
27.74999999999999
 21
112.4929607104248
 31
0.0
  0
LINE
  5
132
330
1F
100
AcDbEntity
  8
VISIBLE
100
AcDbLine
 10
27.74999999999999
 20
111.2179607104248
 30
0.0
 11
19.74999999999999
 21
111.2179607104248
 31
0.0
  0
LINE
  5
133
330
1F
100
AcDbEntity
  8
VISIBLE
100
AcDbLine
 10
19.74999999999999
 20
114.2929607104248
 30
0.0
 11
19.74999999999999
 21
111.2179607104248
 31
0.0
  0
LINE
  5
134
330
1F
100
AcDbEntity
  8
VISIBLE
100
AcDbLine
 10
19.74999999999999
 20
114.2929607104248
 30
0.0
 11
14.74999999999999
 21
114.2929607104248
 31
0.0
  0
LINE
  5
135
330
1F
100
AcDbEntity
  8
VISIBLE
100
AcDbLine
 10
14.74999999999999
 20
122.1929607104248
 30
0.0
 11
14.74999999999999
 21
114.2929607104248
 31
0.0
  0
LINE
  5
136
330
1F
100
AcDbEntity
  8
VISIBLE
100
AcDbLine
 10
19.74999999999999
 20
122.1929607104248
 30
0.0
 11
14.74999999999999
 21
122.1929607104248
 31
0.0
  0
LINE
  5
137
330
1F
100
AcDbEntity
  8
VISIBLE
100
AcDbLine
 10
19.74999999999999
 20
211.3610367845482
 30
0.0
 11
19.74999999999999
 21
122.1929607104248
 31
0.0
  0
LINE
  5
138
330
1F
100
AcDbEntity
  8
VISIBLE
100
AcDbLine
 10
19.74999999999999
 20
211.3610367845482
 30
0.0
 11
14.74999999999999
 21
211.3610367845482
 31
0.0
  0
LINE
  5
139
330
1F
100
AcDbEntity
  8
VISIBLE
100
AcDbLine
 10
14.74999999999999
 20
219.2610367845482
 30
0.0
 11
14.74999999999999
 21
211.3610367845482
 31
0.0
  0
LINE
  5
13A
330
1F
100
AcDbEntity
  8
VISIBLE
100
AcDbLine
 10
19.74999999999999
 20
219.2610367845482
 30
0.0
 11
14.74999999999999
 21
219.2610367845482
 31
0.0
  0
LINE
  5
13B
330
1F
100
AcDbEntity
  8
VISIBLE
100
AcDbLine
 10
19.74999999999999
 20
222.3360367845482
 30
0.0
 11
19.74999999999999
 21
219.2610367845482
 31
0.0
  0
LINE
  5
13C
330
1F
100
AcDbEntity
  8
VISIBLE
100
AcDbLine
 10
27.74999999999999
 20
222.3360367845482
 30
0.0
 11
19.74999999999999
 21
222.3360367845482
 31
0.0
  0
LINE
  5
13D
330
1F
100
AcDbEntity
  8
VISIBLE
100
AcDbLine
 10
27.74999999999999
 20
221.0610367845482
 30
0.0
 11
27.74999999999999
 21
222.3360367845482
 31
0.0
  0
LINE
  5
13E
330
1F
100
AcDbEntity
  8
VISIBLE
100
AcDbLine
 10
30.64999999999999
 20
221.0610367845482
 30
0.0
 11
27.74999999999999
 21
221.0610367845482
 31
0.0
  0
LINE
  5
13F
330
1F
100
AcDbEntity
  8
VISIBLE
100
AcDbLine
 10
30.64999999999999
 20
221.0610367845482
 30
0.0
 11
30.64999999999999
 21
222.3360367845482
 31
0.0
  0
LINE
  5
140
330
1F
100
AcDbEntity
  8
VISIBLE
100
AcDbLine
 10
32.64999999999998
 20
222.3360367845482
 30
0.0
 11
30.64999999999999
 21
222.3360367845482
 31
0.0
  0
LINE
  5
141
330
1F
100
AcDbEntity
  8
VISIBLE
100
AcDbLine
 10
32.64999999999998
 20
222.3360367845482
 30
0.0
 11
32.64999999999998
 21
225.2860367845482
 31
0.0
  0
LINE
  5
142
330
1F
100
AcDbEntity
  8
VISIBLE
100
AcDbLine
 10
32.64999999999998
 20
225.2860367845482
 30
0.0
 11
30.64999999999999
 21
225.2860367845482
 31
0.0
  0
LINE
  5
143
330
1F
100
AcDbEntity
  8
VISIBLE
100
AcDbLine
 10
30.64999999999999
 20
225.2860367845482
 30
0.0
 11
30.64999999999999
 21
226.5610367845482
 31
0.0
  0
LINE
  5
144
330
1F
100
AcDbEntity
  8
VISIBLE
100
AcDbLine
 10
30.64999999999999
 20
226.5610367845482
 30
0.0
 11
27.74999999999999
 21
226.5610367845482
 31
0.0
  0
LINE
  5
145
330
1F
100
AcDbEntity
  8
VISIBLE
100
AcDbLine
 10
27.74999999999999
 20
225.2860367845482
 30
0.0
 11
27.74999999999999
 21
226.5610367845482
 31
0.0
  0
LINE
  5
146
330
1F
100
AcDbEntity
  8
VISIBLE
100
AcDbLine
 10
27.74999999999999
 20
225.2860367845482
 30
0.0
 11
19.74999999999999
 21
225.2860367845482
 31
0.0
  0
LINE
  5
147
330
1F
100
AcDbEntity
  8
VISIBLE
100
AcDbLine
 10
19.74999999999999
 20
228.3610367845483
 30
0.0
 11
19.74999999999999
 21
225.2860367845482
 31
0.0
  0
LINE
  5
148
330
1F
100
AcDbEntity
  8
VISIBLE
100
AcDbLine
 10
19.74999999999999
 20
228.3610367845483
 30
0.0
 11
14.74999999999999
 21
228.3610367845483
 31
0.0
  0
LINE
  5
149
330
1F
100
AcDbEntity
  8
VISIBLE
100
AcDbLine
 10
14.74999999999999
 20
236.2610367845483
 30
0.0
 11
14.74999999999999
 21
228.3610367845483
 31
0.0
  0
LINE
  5
14A
330
1F
100
AcDbEntity
  8
VISIBLE
100
AcDbLine
 10
19.74999999999999
 20
236.2610367845483
 30
0.0
 11
14.74999999999999
 21
236.2610367845483
 31
0.0
  0
LINE
  5
14B
330
1F
100
AcDbEntity
  8
VISIBLE
100
AcDbLine
 10
19.75
 20
325.3610367845483
 30
0.0
 11
19.74999999999999
 21
236.2610367845483
 31
0.0
  0
LINE
  5
14C
330
1F
100
AcDbEntity
  8
VISIBLE
100
AcDbLine
 10
19.75
 20
325.3610367845483
 30
0.0
 11
14.75
 21
325.3610367845483
 31
0.0
  0
LINE
  5
14D
330
1F
100
AcDbEntity
  8
VISIBLE
100
AcDbLine
 10
14.75
 20
333.2610367845483
 30
0.0
 11
14.75
 21
325.3610367845483
 31
0.0
  0
LINE
  5
14E
330
1F
100
AcDbEntity
  8
VISIBLE
100
AcDbLine
 10
19.75
 20
333.2610367845483
 30
0.0
 11
14.75
 21
333.2610367845483
 31
0.0
  0
LINE
  5
14F
330
1F
100
AcDbEntity
  8
VISIBLE
100
AcDbLine
 10
19.75
 20
336.3360367845482
 30
0.0
 11
19.75
 21
333.2610367845483
 31
0.0
  0
LINE
  5
150
330
1F
100
AcDbEntity
  8
VISIBLE
100
AcDbLine
 10
27.75
 20
336.3360367845482
 30
0.0
 11
19.75
 21
336.3360367845482
 31
0.0
  0
LINE
  5
151
330
1F
100
AcDbEntity
  8
VISIBLE
100
AcDbLine
 10
27.75
 20
335.0610367845483
 30
0.0
 11
27.75
 21
336.3360367845482
 31
0.0
  0
LINE
  5
152
330
1F
100
AcDbEntity
  8
VISIBLE
100
AcDbLine
 10
30.65000000000001
 20
335.0610367845483
 30
0.0
 11
27.75
 21
335.0610367845483
 31
0.0
  0
LINE
  5
153
330
1F
100
AcDbEntity
  8
VISIBLE
100
AcDbLine
 10
30.65000000000001
 20
335.0610367845483
 30
0.0
 11
30.65000000000001
 21
336.3360367845482
 31
0.0
  0
LINE
  5
154
330
1F
100
AcDbEntity
  8
VISIBLE
100
AcDbLine
 10
32.64999999999999
 20
336.3360367845482
 30
0.0
 11
30.65000000000001
 21
336.3360367845482
 31
0.0
  0
LINE
  5
155
330
1F
100
AcDbEntity
  8
VISIBLE
100
AcDbLine
 10
32.64999999999999
 20
336.3360367845482
 30
0.0
 11
32.64999999999999
 21
339.2860367845483
 31
0.0
  0
LINE
  5
156
330
1F
100
AcDbEntity
  8
VISIBLE
100
AcDbLine
 10
32.64999999999999
 20
339.2860367845483
 30
0.0
 11
30.65000000000001
 21
339.2860367845483
 31
0.0
  0
LINE
  5
157
330
1F
100
AcDbEntity
  8
VISIBLE
100
AcDbLine
 10
30.65000000000001
 20
339.2860367845483
 30
0.0
 11
30.65000000000001
 21
340.5610367845483
 31
0.0
  0
LINE
  5
158
330
1F
100
AcDbEntity
  8
VISIBLE
100
AcDbLine
 10
30.65000000000001
 20
340.5610367845483
 30
0.0
 11
27.75
 21
340.5610367845483
 31
0.0
  0
LINE
  5
159
330
1F
100
AcDbEntity
  8
VISIBLE
100
AcDbLine
 10
27.75
 20
339.2860367845483
 30
0.0
 11
27.75
 21
340.5610367845483
 31
0.0
  0
LINE
  5
15A
330
1F
100
AcDbEntity
  8
VISIBLE
100
AcDbLine
 10
27.75
 20
339.2860367845483
 30
0.0
 11
19.75
 21
339.2860367845483
 31
0.0
  0
LINE
  5
15B
330
1F
100
AcDbEntity
  8
VISIBLE
100
AcDbLine
 10
19.75
 20
342.3610367845482
 30
0.0
 11
19.75
 21
339.2860367845483
 31
0.0
  0
LINE
  5
15C
330
1F
100
AcDbEntity
  8
VISIBLE
100
AcDbLine
 10
19.75
 20
342.3610367845482
 30
0.0
 11
14.75
 21
342.3610367845482
 31
0.0
  0
LINE
  5
15D
330
1F
100
AcDbEntity
  8
VISIBLE
100
AcDbLine
 10
14.75
 20
350.2610367845483
 30
0.0
 11
14.75
 21
342.3610367845482
 31
0.0
  0
LINE
  5
15E
330
1F
100
AcDbEntity
  8
VISIBLE
100
AcDbLine
 10
19.75
 20
350.2610367845483
 30
0.0
 11
14.75
 21
350.2610367845483
 31
0.0
  0
LINE
  5
15F
330
1F
100
AcDbEntity
  8
VISIBLE
100
AcDbLine
 10
19.75
 20
363.1985915492958
 30
0.0
 11
19.75
 21
350.2610367845483
 31
0.0
  0
LINE
  5
160
330
1F
100
AcDbEntity
  8
VISIBLE
100
AcDbLine
 10
19.75
 20
363.1985915492958
 30
0.0
 11
209.75
 21
363.1985915492958
 31
0.0
  0
LINE
  5
161
330
1F
100
AcDbEntity
  8
VISIBLE
100
AcDbLine
 10
209.75
 20
363.1985915492958
 30
0.0
 11
209.75
 21
350.2610367845483
 31
0.0
  0
LINE
  5
162
330
1F
100
AcDbEntity
  8
VISIBLE
100
AcDbLine
 10
209.75
 20
350.2610367845483
 30
0.0
 11
214.75
 21
350.2610367845483
 31
0.0
  0
LINE
  5
163
330
1F
100
AcDbEntity
  8
VISIBLE
100
AcDbLine
 10
214.75
 20
350.2610367845483
 30
0.0
 11
214.75
 21
342.3610367845482
 31
0.0
  0
CIRCLE
  5
164
330
1F
100
AcDbEntity
  8
VISIBLE
100
AcDbCircle
 10
-188.5715765655041
 20
311.6402929018923
 30
0.0000000000000485
 40
1.5
210
4.650782864387937E-32
220
1.556362817145250E-16
230
-1.0
  0
CIRCLE
  5
165
330
1F
100
AcDbEntity
  8
VISIBLE
100
AcDbCircle
 10
-173.071576565504
 20
327.1402929018923
 30
0.0000000000000509
 40
11.5
210
4.650782864387937E-32
220
1.556362817145250E-16
230
-1.0
  0
CIRCLE
  5
166
330
1F
100
AcDbEntity
  8
VISIBLE
100
AcDbCircle
 10
-157.571576565504
 20
342.6402929018923
 30
0.0000000000000533
 40
1.5
210
4.650782864387937E-32
220
1.556362817145250E-16
230
-1.0
  0
LINE
  5
167
330
1F
100
AcDbEntity
  8
VISIBLE
100
AcDbLine
 10
109.5678781196475
 20
120.9199640940613
 30
0.0
 11
109.5678781196475
 21
107.2170946787781
 31
0.0
  0
LINE
  5
168
330
1F
100
AcDbEntity
  8
VISIBLE
100
AcDbLine
 10
123.6529055088758
 20
107.2170946787781
 30
0.0
 11
109.5678781196475
 21
107.2170946787781
 31
0.0
  0
LINE
  5
169
330
1F
100
AcDbEntity
  8
VISIBLE
100
AcDbLine
 10
123.6529055088758
 20
120.9199640940613
 30
0.0
 11
123.6529055088758
 21
107.2170946787781
 31
0.0
  0
LINE
  5
16A
330
1F
100
AcDbEntity
  8
VISIBLE
100
AcDbLine
 10
123.6529055088758
 20
120.9199640940613
 30
0.0
 11
109.5678781196475
 21
120.9199640940613
 31
0.0
  0
LINE
  5
16B
330
1F
100
AcDbEntity
  8
VISIBLE
100
AcDbLine
 10
80.31608581542963
 20
166.1985915492958
 30
0.0
 11
80.31608581542963
 21
162.1985915492958
 31
0.0
  0
ARC
  5
16C
330
1F
100
AcDbEntity
  8
VISIBLE
100
AcDbCircle
 10
81.31608581542963
 20
162.1985915492958
 30
0.0000000000000001
 40
1.0
100
AcDbArc
 50
180.0000000000016
 51
359.9999999999984
  0
LINE
  5
16D
330
1F
100
AcDbEntity
  8
VISIBLE
100
AcDbLine
 10
82.31608581542963
 20
166.1985915492958
 30
0.0
 11
82.31608581542963
 21
162.1985915492958
 31
0.0
  0
ARC
  5
16E
330
1F
100
AcDbEntity
  8
VISIBLE
100
AcDbCircle
 10
81.31608581542963
 20
166.1985915492958
 30
-0.0000000000000001
 40
1.0
100
AcDbArc
 50
359.9999999999984
 51
180.0000000000016
  0
LINE
  5
16F
330
1F
100
AcDbEntity
  8
VISIBLE
100
AcDbLine
 10
152.25
 20
352.7985915492958
 30
0.0
 11
160.25
 21
352.7985915492958
 31
0.0
  0
ENDSEC
  0
SECTION
  2
OBJECTS
  0
DICTIONARY
  5
C
330
0
100
AcDbDictionary
  3
ACAD_GROUP
350
D
  3
ACAD_LAYOUT
350
1A
  3
ACAD_MATERIAL
350
43
  3
ACAD_MLEADERSTYLE
350
193
  3
ACAD_MLINESTYLE
350
17
  3
ACAD_PLOTSETTINGS
350
19
  3
ACAD_SCALELIST
350
47
  3
ACAD_VISUALSTYLE
350
2A
  3
ACDBHEADERROUNDTRIPXREC
350
172
  3
ACDBVARIABLEDICTIONARY
350
6C
  3
ONSHAPE_DATA
350
170
  0
DICTIONARY
  5
D
102
{ACAD_REACTORS
330
C
102
}
330
C
100
AcDbDictionary
  0
DICTIONARY
  5
1A
102
{ACAD_REACTORS
330
C
102
}
330
C
100
AcDbDictionary
  0
DICTIONARY
  5
43
102
{ACAD_REACTORS
330
C
102
}
330
C
100
AcDbDictionary
  3
BYBLOCK
350
45
  3
BYLAYER
350
44
  3
GLOBAL
350
46
  0
DICTIONARY
  5
193
102
{ACAD_REACTORS
330
C
102
}
330
C
100
AcDbDictionary
  0
DICTIONARY
  5
17
102
{ACAD_REACTORS
330
C
102
}
330
C
100
AcDbDictionary
  3
STANDARD
350
18
  0
DICTIONARY
  5
19
102
{ACAD_REACTORS
330
C
102
}
330
C
100
AcDbDictionary
  0
DICTIONARY
  5
47
102
{ACAD_REACTORS
330
C
102
}
330
C
100
AcDbDictionary
  3
A0
350
48
  3
A1
350
49
  3
A2
350
4A
  3
A3
350
4B
  3
A4
350
4C
  3
A5
350
4D
  3
A6
350
4E
  3
A7
350
4F
  3
A8
350
50
  3
A9
350
51
  3
B0
350
52
  3
B1
350
53
  3
B2
350
54
  3
B3
350
55
  3
B4
350
56
  3
B5
350
57
  3
B6
350
58
  3
B7
350
59
  3
B8
350
5A
  3
B9
350
5B
  3
C0
350
5C
  3
C1
350
5D
  3
C2
350
5E
  3
C3
350
5F
  3
C4
350
60
  3
C5
350
61
  3
C6
350
62
  3
C7
350
63
  3
C8
350
64
  3
C9
350
65
  3
D0
350
66
  3
D1
350
67
  3
D2
350
68
  0
DICTIONARY
  5
2A
102
{ACAD_REACTORS
330
C
102
}
330
C
100
AcDbDictionary
  3
2DWIREFRAME
350
2F
  3
BASIC
350
32
  3
BRIGHTEN
350
36
  3
COLORCHANGE
350
3A
  3
CONCEPTUAL
350
34
  3
DIM
350
35
  3
EDGECOLOROFF
350
3D
  3
FACEPATTERN
350
39
  3
FLAT
350
2B
  3
FLATWITHEDGES
350
2C
  3
GOURAUD
350
2D
  3
GOURAUDWITHEDGES
350
2E
  3
HIDDEN
350
31
  3
JITTEROFF
350
3B
  3
LINEPATTERN
350
38
  3
OVERHANGOFF
350
3C
  3
REALISTIC
350
33
  3
SHADED
350
42
  3
SHADED_WITH_EDGES
350
41
  3
SHADES_OF_GRAY
350
3E
  3
SKETCHY
350
3F
  3
THICKEN
350
37
  3
WIREFRAME
350
30
  3
X-RAY
350
40
  0
DICTIONARY
  5
172
102
{ACAD_REACTORS
330
C
102
}
330
C
100
AcDbDictionary
  3
CEPSNTYPE
350
17B
  3
DIMSTYLEDATA
350
191
  3
FINGERPRINTGUID
350
17C
  3
HYPERLINKBASE
350
175
  3
INSUNITS
350
17A
  3
LAYOUTDICT
350
177
  3
LWETCUNION
350
179
  3
PLOTSETDICT
350
178
  3
PSVPSCALE
350
17E
  3
PUCSBASE
350
181
  3
PUCSORGBACK
350
187
  3
PUCSORGBOTTOM
350
183
  3
PUCSORGFRONT
350
186
  3
PUCSORGLEFT
350
184
  3
PUCSORGRIGHT
350
185
  3
PUCSORGTOP
350
182
  3
PUCSORTHOREF
350
17F
  3
PUCSORTHOVIEW
350
180
  3
STYLESHEET
350
176
  3
TSTACKALIGN
350
173
  3
TSTACKSIZE
350
174
  3
UCSBASE
350
18A
  3
UCSORGBACK
350
190
  3
UCSORGBOTTOM
350
18C
  3
UCSORGFRONT
350
18F
  3
UCSORGLEFT
350
18D
  3
UCSORGRIGHT
350
18E
  3
UCSORGTOP
350
18B
  3
UCSORTHOREF
350
188
  3
UCSORTHOVIEW
350
189
  3
VERSIONGUID
350
17D
  0
DICTIONARY
  5
6C
102
{ACAD_REACTORS
330
C
102
}
330
C
100
AcDbDictionary
  3
CANNOSCALE
350
198
  3
CTABLESTYLE
350
192
  3
DIMASSOC
350
196
  3
HIDETEXT
350
197
  3
MSLTSCALE
350
199
  3
OLEFRAME
350
6D
  0
DICTIONARY
  5
170
102
{ACAD_REACTORS
330
C
102
}
330
C
100
AcDbDictionary
280
     1
  3
DIM_UNITS
360
171
  0
MATERIAL
  5
45
102
{ACAD_REACTORS
330
43
102
}
102
{ACAD_XDICTIONARY
360
19C
102
}
330
43
100
AcDbMaterial
  1
BYBLOCK
  0
MATERIAL
  5
44
102
{ACAD_REACTORS
330
43
102
}
102
{ACAD_XDICTIONARY
360
19A
102
}
330
43
100
AcDbMaterial
  1
BYLAYER
  0
MATERIAL
  5
46
102
{ACAD_REACTORS
330
43
102
}
102
{ACAD_XDICTIONARY
360
19E
102
}
330
43
100
AcDbMaterial
  1
GLOBAL
  0
MLINESTYLE
  5
18
102
{ACAD_REACTORS
330
17
102
}
330
17
100
AcDbMlineStyle
  2
Standard
 70
     0
  3

 62
   256
 51
90.0
 52
90.0
 71
     2
 49
0.5
 62
   256
  6
BYLAYER
 49
-0.5
 62
   256
  6
BYLAYER
  0
ACAD_PROXY_OBJECT
  5
48
102
{ACAD_REACTORS
330
47
102
}
330
47
100
AcDbProxyObject
 90
      499
 91
      503
 93
       41
310
903313A31580
  0
ACAD_PROXY_OBJECT
  5
49
102
{ACAD_REACTORS
330
47
102
}
330
47
100
AcDbProxyObject
 90
      499
 91
      503
 93
      105
310
903313A324000000000000004000
  0
ACAD_PROXY_OBJECT
  5
4A
102
{ACAD_REACTORS
330
47
102
}
330
47
100
AcDbProxyObject
 90
      499
 91
      503
 93
      105
310
903313A344000000000000104000
  0
ACAD_PROXY_OBJECT
  5
4B
102
{ACAD_REACTORS
330
47
102
}
330
47
100
AcDbProxyObject
 90
      499
 91
      503
 93
      105
310
903313A354000000000000144000
  0
ACAD_PROXY_OBJECT
  5
4C
102
{ACAD_REACTORS
330
47
102
}
330
47
100
AcDbProxyObject
 90
      499
 91
      503
 93
      105
310
903313A384000000000000204000
  0
ACAD_PROXY_OBJECT
  5
4D
102
{ACAD_REACTORS
330
47
102
}
330
47
100
AcDbProxyObject
 90
      499
 91
      503
 93
      113
310
904313A31304000000000000244000
  0
ACAD_PROXY_OBJECT
  5
4E
102
{ACAD_REACTORS
330
47
102
}
330
47
100
AcDbProxyObject
 90
      499
 91
      503
 93
      113
310
904313A31364000000000000304000
  0
ACAD_PROXY_OBJECT
  5
4F
102
{ACAD_REACTORS
330
47
102
}
330
47
100
AcDbProxyObject
 90
      499
 91
      503
 93
      113
310
904313A32304000000000000344000
  0
ACAD_PROXY_OBJECT
  5
50
102
{ACAD_REACTORS
330
47
102
}
330
47
100
AcDbProxyObject
 90
      499
 91
      503
 93
      113
310
904313A333040000000000003E4000
  0
ACAD_PROXY_OBJECT
  5
51
102
{ACAD_REACTORS
330
47
102
}
330
47
100
AcDbProxyObject
 90
      499
 91
      503
 93
      113
310
904313A34304000000000000444000
  0
ACAD_PROXY_OBJECT
  5
52
102
{ACAD_REACTORS
330
47
102
}
330
47
100
AcDbProxyObject
 90
      499
 91
      503
 93
      113
310
904313A35304000000000000494000
  0
ACAD_PROXY_OBJECT
  5
53
102
{ACAD_REACTORS
330
47
102
}
330
47
100
AcDbProxyObject
 90
      499
 91
      503
 93
      121
310
905313A3130304000000000000594000
  0
ACAD_PROXY_OBJECT
  5
54
102
{ACAD_REACTORS
330
47
102
}
330
47
100
AcDbProxyObject
 90
      499
 91
      503
 93
      105
310
903323A310000000000000010100
  0
ACAD_PROXY_OBJECT
  5
55
102
{ACAD_REACTORS
330
47
102
}
330
47
100
AcDbProxyObject
 90
      499
 91
      503
 93
      105
310
903343A310000000000000410100
  0
ACAD_PROXY_OBJECT
  5
56
102
{ACAD_REACTORS
330
47
102
}
330
47
100
AcDbProxyObject
 90
      499
 91
      503
 93
      105
310
903383A310000000000000810100
  0
ACAD_PROXY_OBJECT
  5
57
102
{ACAD_REACTORS
330
47
102
}
330
47
100
AcDbProxyObject
 90
      499
 91
      503
 93
      113
310
90431303A310000000000000910100
  0
ACAD_PROXY_OBJECT
  5
58
102
{ACAD_REACTORS
330
47
102
}
330
47
100
AcDbProxyObject
 90
      499
 91
      503
 93
      121
310
9053130303A310000000000001650100
  0
ACAD_PROXY_OBJECT
  5
59
102
{ACAD_REACTORS
330
47
102
}
330
47
100
AcDbProxyObject
 90
      499
 91
      503
 93
      257
310
90E312F31323822203D2031272D3022000000000000200FC000000000000284000
  0
ACAD_PROXY_OBJECT
  5
5A
102
{ACAD_REACTORS
330
47
102
}
330
47
100
AcDbProxyObject
 90
      499
 91
      503
 93
      249
310
90D312F363422203D2031272D3022000000000000240FC000000000000284000
  0
ACAD_PROXY_OBJECT
  5
5B
102
{ACAD_REACTORS
330
47
102
}
330
47
100
AcDbProxyObject
 90
      499
 91
      503
 93
      249
310
90D312F333222203D2031272D3022000000000000280FC000000000000284000
  0
ACAD_PROXY_OBJECT
  5
5C
102
{ACAD_REACTORS
330
47
102
}
330
47
100
AcDbProxyObject
 90
      499
 91
      503
 93
      249
310
90D312F313622203D2031272D30220000000000002C0FC000000000000284000
  0
ACAD_PROXY_OBJECT
  5
5D
102
{ACAD_REACTORS
330
47
102
}
330
47
100
AcDbProxyObject
 90
      499
 91
      503
 93
      249
310
90D332F333222203D2031272D30220000000000002E0FC000000000000284000
  0
ACAD_PROXY_OBJECT
  5
5E
102
{ACAD_REACTORS
330
47
102
}
330
47
100
AcDbProxyObject
 90
      499
 91
      503
 93
      241
310
90C312F3822203D2031272D3022000000000000300FC000000000000284000
  0
ACAD_PROXY_OBJECT
  5
5F
102
{ACAD_REACTORS
330
47
102
}
330
47
100
AcDbProxyObject
 90
      499
 91
      503
 93
      249
310
90D332F313622203D2031272D3022000000000000320FC000000000000284000
  0
ACAD_PROXY_OBJECT
  5
60
102
{ACAD_REACTORS
330
47
102
}
330
47
100
AcDbProxyObject
 90
      499
 91
      503
 93
      241
310
90C312F3422203D2031272D3022000000000000340FC000000000000284000
  0
ACAD_PROXY_OBJECT
  5
61
102
{ACAD_REACTORS
330
47
102
}
330
47
100
AcDbProxyObject
 90
      499
 91
      503
 93
      241
310
90C332F3822203D2031272D3022000000000000360FC000000000000284000
  0
ACAD_PROXY_OBJECT
  5
62
102
{ACAD_REACTORS
330
47
102
}
330
47
100
AcDbProxyObject
 90
      499
 91
      503
 93
      241
310
90C312F3222203D2031272D3022000000000000380FC000000000000284000
  0
ACAD_PROXY_OBJECT
  5
63
102
{ACAD_REACTORS
330
47
102
}
330
47
100
AcDbProxyObject
 90
      499
 91
      503
 93
      241
310
90C332F3422203D2031272D30220000000000003A0FC000000000000284000
  0
ACAD_PROXY_OBJECT
  5
64
102
{ACAD_REACTORS
330
47
102
}
330
47
100
AcDbProxyObject
 90
      499
 91
      503
 93
      161
310
90A3122203D2031272D30224000000000000284000
  0
ACAD_PROXY_OBJECT
  5
65
102
{ACAD_REACTORS
330
47
102
}
330
47
100
AcDbProxyObject
 90
      499
 91
      503
 93
      257
310
90E312D312F3222203D2031272D30220000000000003E0FC000000000000284000
  0
ACAD_PROXY_OBJECT
  5
66
102
{ACAD_REACTORS
330
47
102
}
330
47
100
AcDbProxyObject
 90
      499
 91
      503
 93
      225
310
90A3322203D2031272D302200000000000002100000000000000284000
  0
ACAD_PROXY_OBJECT
  5
67
102
{ACAD_REACTORS
330
47
102
}
330
47
100
AcDbProxyObject
 90
      499
 91
      503
 93
      225
310
90A3622203D2031272D302200000000000006100000000000000284000
  0
ACAD_PROXY_OBJECT
  5
68
102
{ACAD_REACTORS
330
47
102
}
330
47
100
AcDbProxyObject
 90
      499
 91
      503
 93
      249
310
90D31272D3022203D2031272D30220000000000000A100000000000000284000
  0
ACAD_PROXY_OBJECT
  5
2F
102
{ACAD_REACTORS
330
2A
102
}
330
2A
100
AcDbProxyObject
 90
      499
 91
      501
 93
      436
310
42CC9915DA5C99599C985B595049028333333333333E33F0000000000000F90107901411070040501600405405064090741402480A0340
1001
ACAD
1000
AcDbSavedByObjectVersion
1070
     0
  0
ACAD_PROXY_OBJECT
  5
32
102
{ACAD_REACTORS
330
2A
102
}
330
2A
100
AcDbProxyObject
 90
      499
 91
      501
 93
      388
310
4150985CDA58D07406404333333333333E33F0000000000000F90107A41107004050150841D405064090741402480A0350
1001
ACAD
1000
AcDbSavedByObjectVersion
1070
     0
  0
ACAD_PROXY_OBJECT
  5
36
102
{ACAD_REACTORS
330
2A
102
}
330
2A
100
AcDbProxyObject
 90
      499
 91
      501
 93
      428
310
42109C9A59DA1D195B90C409028333333333333E33F0000000000000F9010790141107004050150841D405064090741402480A029950
1001
ACAD
1000
AcDbSavedByObjectVersion
1070
     0
  0
ACAD_PROXY_OBJECT
  5
3A
102
{ACAD_REACTORS
330
2A
102
}
330
2A
100
AcDbProxyObject
 90
      499
 91
      501
 93
      452
310
42D0DBDB1BDC90DA185B99D95104090240C333333333333E33F0000000000000F90108901411070040501508421405064090741402480A0350
1001
ACAD
1000
AcDbSavedByObjectVersion
1070
     0
  0
ACAD_PROXY_OBJECT
  5
34
102
{ACAD_REACTORS
330
2A
102
}
330
2A
100
AcDbProxyObject
 90
      499
 91
      501
 93
      500
310
4290DBDB98D95C1D1D585B10940D028333333333333E33F0000000000000F90107902409070040501000000000018199010841D405064090740C02480A0340
1001
ACAD
1000
AcDbSavedByObjectVersion
1070
     0
  0
ACAD_PROXY_OBJECT
  5
35
102
{ACAD_REACTORS
330
2A
102
}
330
2A
100
AcDbProxyObject
 90
      499
 91
      501
 93
      412
310
40D11A5B50B409028333333333333E33F0000000000000F9010790141107004050150841D405064090741402480A02677FFFFFD0
1001
ACAD
1000
AcDbSavedByObjectVersion
1070
     0
  0
ACAD_PROXY_OBJECT
  5
3D
102
{ACAD_REACTORS
330
2A
102
}
330
2A
100
AcDbProxyObject
 90
      499
 91
      501
 93
      452
310
43115919D950DBDB1BDC93D999916409028333333333333E33F0000000000000F9010790141107004050150841D405064090741402480A0350
1001
ACAD
1000
AcDbSavedByObjectVersion
1070
     0
  0
ACAD_PROXY_OBJECT
  5
39
102
{ACAD_REACTORS
330
2A
102
}
330
2A
100
AcDbProxyObject
 90
      499
 91
      501
 93
      444
310
42D19858D95C185D1D195C9B90F409028333333333333E33F0000000000000F9010790141107004050150841D405064090741402480A0350
1001
ACAD
1000
AcDbSavedByObjectVersion
1070
     0
  0
ACAD_PROXY_OBJECT
  5
2B
102
{ACAD_REACTORS
330
2A
102
}
330
2A
100
AcDbProxyObject
 90
      499
 91
      501
 93
      380
310
41119B185D240901404333333333333E33F0000000000000F9010740A907004050150841D405064090741402480A1B50
1001
ACAD
1000
AcDbSavedByObjectVersion
1070
     0
  0
ACAD_PROXY_OBJECT
  5
2C
102
{ACAD_REACTORS
330
2A
102
}
330
2A
100
AcDbProxyObject
 90
      499
 91
      501
 93
      468
310
43519B185D15DA5D1A115919D95CD0140901404333333333333E33F0000000000000F90107409019070040501600405405064090741402480A1B50
1001
ACAD
1000
AcDbSavedByObjectVersion
1070
     0
  0
ACAD_PROXY_OBJECT
  5
2D
102
{ACAD_REACTORS
330
2A
102
}
330
2A
100
AcDbProxyObject
 90
      499
 91
      501
 93
      404
310
41D1DBDD5C985D5910240902404333333333333E33F0000000000000F9010740A9070040501641D405064090741402480A1B50
1001
ACAD
1000
AcDbSavedByObjectVersion
1070
     0
  0
ACAD_PROXY_OBJECT
  5
2E
102
{ACAD_REACTORS
330
2A
102
}
330
2A
100
AcDbProxyObject
 90
      499
 91
      501
 93
      492
310
4411DBDD5C985D5915DA5D1A115919D95CD0340902404333333333333E33F0000000000000F90107409019070040501600405405064090741402480A1B50
1001
ACAD
1000
AcDbSavedByObjectVersion
1070
     0
  0
ACAD_PROXY_OBJECT
  5
31
102
{ACAD_REACTORS
330
2A
102
}
330
2A
100
AcDbProxyObject
 90
      499
 91
      501
 93
      476
310
41921A5919195B90640502408333333333333E33F0000000000000F901079024090700405020000000000001110200405405064090740C02480A0340
1001
ACAD
1000
AcDbSavedByObjectVersion
1070
     0
  0
ACAD_PROXY_OBJECT
  5
3B
102
{ACAD_REACTORS
330
2A
102
}
330
2A
100
AcDbProxyObject
 90
      499
 91
      501
 93
      428
310
42529A5D1D195C93D999914409028333333333333E33F0000000000000F9010790141107004050150A41D405064090741402480A0350
1001
ACAD
1000
AcDbSavedByObjectVersion
1070
     0
  0
ACAD_PROXY_OBJECT
  5
38
102
{ACAD_REACTORS
330
2A
102
}
330
2A
100
AcDbProxyObject
 90
      499
 91
      501
 93
      444
310
42D31A5B995C185D1D195C9B90E409028333333333333E33F0000000000000F9010790141107004050750841D405064090741402483A0350
1001
ACAD
1000
AcDbSavedByObjectVersion
1070
     0
  0
ACAD_PROXY_OBJECT
  5
3C
102
{ACAD_REACTORS
330
2A
102
}
330
2A
100
AcDbProxyObject
 90
      499
 91
      501
 93
      444
310
42D3DD995C9A185B99D3D999915409028333333333333E33F0000000000000F9010790141107004050150941D405064090741402480A0350
1001
ACAD
1000
AcDbSavedByObjectVersion
1070
     0
  0
ACAD_PROXY_OBJECT
  5
33
102
{ACAD_REACTORS
330
2A
102
}
330
2A
100
AcDbProxyObject
 90
      499
 91
      501
 93
      428
310
425499585B1A5CDD1A58D08409038333333333333E33F0000000000000F9010740A907004050150800405405064090740C02480A1B40
1001
ACAD
1000
AcDbSavedByObjectVersion
1070
     0
  0
ACAD_PROXY_OBJECT
  5
42
102
{ACAD_REACTORS
330
2A
102
}
330
2A
100
AcDbProxyObject
 90
      499
 91
      501
 93
      420
310
4194DA1859195911B40902404333333333333E33F0000000000000F9010740A41107004050150800405405064090840C02480A0B40
1001
ACAD
1000
AcDbSavedByObjectVersion
1070
     0
  0
ACAD_PROXY_OBJECT
  5
41
102
{ACAD_REACTORS
330
2A
102
}
330
2A
100
AcDbProxyObject
 90
      499
 91
      501
 93
      516
310
4454DA18591959081DDA5D1A08195919D95CD1A40902404333333333333E33F0000000000000F901074090142907004050250800405405064090740C02480A0B40
1001
ACAD
1000
AcDbSavedByObjectVersion
1070
     0
  0
ACAD_PROXY_OBJECT
  5
3E
102
{ACAD_REACTORS
330
2A
102
}
330
2A
100
AcDbProxyObject
 90
      499
 91
      501
 93
      532
310
4394DA1859195CC81BD98811DC985E5174090240C333333333333E33F0000000000000F901079024090741D01000000000000111010841D405064090740C02480A0340
1001
ACAD
1000
AcDbSavedByObjectVersion
1070
     0
  0
ACAD_PROXY_OBJECT
  5
3F
102
{ACAD_REACTORS
330
2A
102
}
330
2A
100
AcDbProxyObject
 90
      499
 91
      501
 93
      476
310
41D4DAD95D18DA1E51840502408333333333333E33F0000000000000F901079024090741D01000000000000111010B41D405064090741802480A0340
1001
ACAD
1000
AcDbSavedByObjectVersion
1070
     0
  0
ACAD_PROXY_OBJECT
  5
37
102
{ACAD_REACTORS
330
2A
102
}
330
2A
100
AcDbProxyObject
 90
      499
 91
      501
 93
      412
310
41D51A1A58DAD95B90D409028333333333333E33F0000000000000F9010790141107004050150C41D405064090741402480A0350
1001
ACAD
1000
AcDbSavedByObjectVersion
1070
     0
  0
ACAD_PROXY_OBJECT
  5
30
102
{ACAD_REACTORS
330
2A
102
}
330
2A
100
AcDbProxyObject
 90
      499
 91
      501
 93
      420
310
4255DA5C99599C985B595059028333333333333E33F0000000000000F90107901411070040501600405405064090740C02480A0340
1001
ACAD
1000
AcDbSavedByObjectVersion
1070
     0
  0
ACAD_PROXY_OBJECT
  5
40
102
{ACAD_REACTORS
330
2A
102
}
330
2A
100
AcDbProxyObject
 90
      499
 91
      501
 93
      404
310
41560B54985E51940902404000000000000E03F0000000000000F9010740501907004050150841D405064090740C02480A1B40
1001
ACAD
1000
AcDbSavedByObjectVersion
1070
     0
  0
XRECORD
  5
17B
102
{ACAD_REACTORS
330
172
102
}
330
172
100
AcDbXrecord
 90
        0
  0
XRECORD
  5
191
102
{ACAD_REACTORS
330
172
102
}
330
172
100
AcDbXrecord
1000
DSTYLE
1002
{
1070
   179
 70
     1
1070
   171
 70
     3
1070
   143
 40
0.03937
1070
   274
 70
     3
1070
    41
 40
2.5
1070
   141
 40
2.5
1070
   271
 70
     2
1070
    43
 40
3.75
1070
   278
 70
    44
1070
    44
 40
1.25
1070
    42
 40
0.625
1070
   147
 40
0.625
1070
   371
 70
    13
1070
   372
 70
    13
1070
    77
 70
     1
1070
   272
 70
     2
1070
    73
 70
     0
1070
   172
 70
     1
1070
    74
 70
     0
1070
   283
 70
     0
1070
   340
340
70
1070
   140
 40
3.5
1070
   284
 70
     8
1070
   288
 70
     1
1070
    78
 70
     8
1002
}
  0
XRECORD
  5
17C
102
{ACAD_REACTORS
330
172
102
}
330
172
100
AcDbXrecord
  1
{B3FE4956-C4A3-B998-7D04-9B82DA3ED2FE}
  0
XRECORD
  5
175
102
{ACAD_REACTORS
330
172
102
}
330
172
100
AcDbXrecord
  1

  0
XRECORD
  5
17A
102
{ACAD_REACTORS
330
172
102
}
330
172
100
AcDbXrecord
 90
        1
  0
XRECORD
  5
177
102
{ACAD_REACTORS
330
172
102
}
330
172
100
AcDbXrecord
340
1A
  0
XRECORD
  5
179
102
{ACAD_REACTORS
330
172
102
}
330
172
100
AcDbXrecord
 90
    10269
  0
XRECORD
  5
178
102
{ACAD_REACTORS
330
172
102
}
330
172
100
AcDbXrecord
340
19
  0
XRECORD
  5
17E
102
{ACAD_REACTORS
330
172
102
}
330
172
100
AcDbXrecord
 40
0.0
  0
XRECORD
  5
181
102
{ACAD_REACTORS
330
172
102
}
330
172
100
AcDbXrecord
340
0
  0
XRECORD
  5
187
102
{ACAD_REACTORS
330
172
102
}
330
172
100
AcDbXrecord
 10
0.0
 20
0.0
 30
0.0
  0
XRECORD
  5
183
102
{ACAD_REACTORS
330
172
102
}
330
172
100
AcDbXrecord
 10
0.0
 20
0.0
 30
0.0
  0
XRECORD
  5
186
102
{ACAD_REACTORS
330
172
102
}
330
172
100
AcDbXrecord
 10
0.0
 20
0.0
 30
0.0
  0
XRECORD
  5
184
102
{ACAD_REACTORS
330
172
102
}
330
172
100
AcDbXrecord
 10
0.0
 20
0.0
 30
0.0
  0
XRECORD
  5
185
102
{ACAD_REACTORS
330
172
102
}
330
172
100
AcDbXrecord
 10
0.0
 20
0.0
 30
0.0
  0
XRECORD
  5
182
102
{ACAD_REACTORS
330
172
102
}
330
172
100
AcDbXrecord
 10
0.0
 20
0.0
 30
0.0
  0
XRECORD
  5
17F
102
{ACAD_REACTORS
330
172
102
}
330
172
100
AcDbXrecord
340
0
  0
XRECORD
  5
180
102
{ACAD_REACTORS
330
172
102
}
330
172
100
AcDbXrecord
 70
     0
  0
XRECORD
  5
176
102
{ACAD_REACTORS
330
172
102
}
330
172
100
AcDbXrecord
  1

  0
XRECORD
  5
173
102
{ACAD_REACTORS
330
172
102
}
330
172
100
AcDbXrecord
 90
        1
  0
XRECORD
  5
174
102
{ACAD_REACTORS
330
172
102
}
330
172
100
AcDbXrecord
 90
       70
  0
XRECORD
  5
18A
102
{ACAD_REACTORS
330
172
102
}
330
172
100
AcDbXrecord
340
0
  0
XRECORD
  5
190
102
{ACAD_REACTORS
330
172
102
}
330
172
100
AcDbXrecord
 10
0.0
 20
0.0
 30
0.0
  0
XRECORD
  5
18C
102
{ACAD_REACTORS
330
172
102
}
330
172
100
AcDbXrecord
 10
0.0
 20
0.0
 30
0.0
  0
XRECORD
  5
18F
102
{ACAD_REACTORS
330
172
102
}
330
172
100
AcDbXrecord
 10
0.0
 20
0.0
 30
0.0
  0
XRECORD
  5
18D
102
{ACAD_REACTORS
330
172
102
}
330
172
100
AcDbXrecord
 10
0.0
 20
0.0
 30
0.0
  0
XRECORD
  5
18E
102
{ACAD_REACTORS
330
172
102
}
330
172
100
AcDbXrecord
 10
0.0
 20
0.0
 30
0.0
  0
XRECORD
  5
18B
102
{ACAD_REACTORS
330
172
102
}
330
172
100
AcDbXrecord
 10
0.0
 20
0.0
 30
0.0
  0
XRECORD
  5
188
102
{ACAD_REACTORS
330
172
102
}
330
172
100
AcDbXrecord
340
0
  0
XRECORD
  5
189
102
{ACAD_REACTORS
330
172
102
}
330
172
100
AcDbXrecord
 70
     0
  0
XRECORD
  5
17D
102
{ACAD_REACTORS
330
172
102
}
330
172
100
AcDbXrecord
  1
{FAEB1C32-E019-11D5-929B-00C0DF256EC4}
  0
DICTIONARYVAR
  5
198
102
{ACAD_REACTORS
330
6C
102
}
330
6C
100
DictionaryVariables
280
     0
  1
1:1
  0
DICTIONARYVAR
  5
192
102
{ACAD_REACTORS
330
6C
102
}
330
6C
100
DictionaryVariables
280
     0
  1
Standard
  0
DICTIONARYVAR
  5
196
102
{ACAD_REACTORS
330
6C
102
}
330
6C
100
DictionaryVariables
280
     0
  1
2
  0
DICTIONARYVAR
  5
197
102
{ACAD_REACTORS
330
6C
102
}
330
6C
100
DictionaryVariables
280
     0
  1
1
  0
DICTIONARYVAR
  5
199
102
{ACAD_REACTORS
330
6C
102
}
330
6C
100
DictionaryVariables
280
     0
  1
1
  0
DICTIONARYVAR
  5
6D
102
{ACAD_REACTORS
330
6C
102
}
330
6C
100
DictionaryVariables
280
     0
  1
0
  0
XRECORD
  5
171
102
{ACAD_REACTORS
330
170
102
}
330
170
100
AcDbXrecord
 70
     4
  0
DICTIONARY
  5
19C
330
45
100
AcDbDictionary
280
     1
  3
ACAD_XREC_ROUNDTRIP
360
19D
  0
DICTIONARY
  5
19A
330
44
100
AcDbDictionary
280
     1
  3
ACAD_XREC_ROUNDTRIP
360
19B
  0
DICTIONARY
  5
19E
330
46
100
AcDbDictionary
280
     1
  3
ACAD_XREC_ROUNDTRIP
360
19F
  0
XRECORD
  5
19D
102
{ACAD_REACTORS
330
19C
102
}
330
19C
100
AcDbXrecord
102
MATERIAL
148
0.0
149
0.0
149
0.0
 93
        0
 94
      127
282
     0
 72
     1
 77
     1
171
     1
175
     1
179
     1
273
     0
  0
XRECORD
  5
19B
102
{ACAD_REACTORS
330
19A
102
}
330
19A
100
AcDbXrecord
102
MATERIAL
148
0.0
149
0.0
149
0.0
 93
        0
 94
      127
282
     0
 72
     1
 77
     1
171
     1
175
     1
179
     1
273
     0
  0
XRECORD
  5
19F
102
{ACAD_REACTORS
330
19E
102
}
330
19E
100
AcDbXrecord
102
MATERIAL
148
0.0
149
0.0
149
0.0
 93
        0
 94
      127
282
     0
 72
     1
 77
     1
171
     1
175
     1
179
     1
273
     0
  0
ENDSEC
  0
EOF
